<svg xmlns="http://www.w3.org/2000/svg" viewBox="0 0 117.97 86"><defs><style>.cls-1{fill:#025e82;}</style></defs><g id="Layer_2" data-name="Layer 2"><g id="Layer_1-2" data-name="Layer 1"><g id="qCXN4p"><path class="cls-1" d="M13.6,54.4c-.82-.09-1.6-.13-2.37-.26a13.59,13.59,0,1,1,16-13.59,20.78,20.78,0,0,0,2.08,9.2,7.82,7.82,0,0,0,7.52,4.61q22.2-.07,44.41,0a7.73,7.73,0,0,0,7.38-4.46,19.88,19.88,0,0,0,2.11-9A13.62,13.62,0,1,1,106.4,54.18c-.63.09-1.27.14-2,.22,0,.29,0,.57,0,.86,0,4,0,8,0,12,0,6.25-2.89,10.67-8.62,13.2a.7.7,0,0,0-.48.78c0,1.33,0,2.66,0,4V86H81.73V81.55c-.32,0-.56,0-.8,0q-21.92,0-43.82,0c-.68,0-.84.22-.81.85,0,1.19,0,2.39,0,3.64H22.68c0-1.38-.05-2.75,0-4.12a1.48,1.48,0,0,0-1.06-1.66c-5.17-2.51-7.94-6.65-8-12.46,0-4.23,0-8.46,0-12.69C13.64,54.85,13.61,54.63,13.6,54.4Z"/><path class="cls-1" d="M13.64,22.47a23,23,0,0,1,1-7.2C17.28,6.68,23.2,1.84,32,.34A25.31,25.31,0,0,1,36.22,0Q58.94,0,81.67,0a24.07,24.07,0,0,1,12,2.89A20.1,20.1,0,0,1,103.8,17.11c.37,1.77.47,3.59.71,5.48-1.09.05-2,0-2.88.16a40.89,40.89,0,0,0-5.09.82,12.51,12.51,0,0,0-9.47,10,58.8,58.8,0,0,0-.83,6.93,29.55,29.55,0,0,1-.34,3.14c-.84,3.8-3.57,6-7.69,6.14-3.42.11-6.84.07-10.25.08q-13.32,0-26.64,0a16.71,16.71,0,0,1-3-.23A7.33,7.33,0,0,1,32,43c-.21-1.6-.11-3.25-.32-4.85a38.81,38.81,0,0,0-1.15-6.28c-1.52-5-5.13-7.72-10.16-8.61C18.17,22.84,16,22.72,13.64,22.47Z"/></g></g></g></svg>