<svg xmlns="http://www.w3.org/2000/svg" viewBox="0 0 141.7 125"><defs><style>.cls-1{fill:#025e82;}</style></defs><g id="Layer_2" data-name="Layer 2"><g id="Layer_1-2" data-name="Layer 1"><g id="TVcOMc"><path class="cls-1" d="M21.35,125a13.05,13.05,0,0,1-1.55-.59,4.65,4.65,0,0,1-2.53-3.65,9.36,9.36,0,0,1-.07-1.3v-59a20.47,20.47,0,0,0,9.74-4.4V87.78h87.51V55.86a20.48,20.48,0,0,0,9.75,4.61v58.47c0,3.6-.76,4.74-4,6.06Z"/><path class="cls-1" d="M113.41,38.34a14.63,14.63,0,0,1-6.14,10.08A14.1,14.1,0,0,1,98.47,51,14.43,14.43,0,0,1,85,38.35a14.37,14.37,0,0,1-5.19,9.41,13.76,13.76,0,0,1-10.3,3.14A14.23,14.23,0,0,1,56.7,38.4c-1.87,8.17-6.78,13-15.4,12.42-7.44-.5-11.59-5.25-13-12.56-.14.67-.24,1.25-.38,1.82a14.18,14.18,0,0,1-27.78-1,3.82,3.82,0,0,1,1.09-3.73c6-6.29,11.86-12.67,17.77-19a1.53,1.53,0,0,1,1.24-.54q50.64,0,101.26,0a1.54,1.54,0,0,1,1.25.55q9.3,10,18.62,20a1.58,1.58,0,0,1,.37,1,14.17,14.17,0,0,1-28.22,1.2A1.09,1.09,0,0,0,113.41,38.34Z"/><path class="cls-1" d="M17.3,10.21c0-2-.13-4.1,0-6.18a4.69,4.69,0,0,1,4.4-4c.29,0,.58,0,.87,0h96.2a5.23,5.23,0,0,1,4.11,1.6,4.43,4.43,0,0,1,1.25,2.85c.06,1.93,0,3.85,0,5.69-5.28-.31-10.55-.14-15.81-.14q-43.91,0-87.81,0C19.48,10,18.41,10.14,17.3,10.21Z"/></g></g></g></svg>