<svg xmlns="http://www.w3.org/2000/svg" viewBox="0 0 113.26 136.84"><defs><style>.cls-1{fill:#025e82;}</style></defs><g id="Layer_2" data-name="Layer 2"><g id="Layer_1-2" data-name="Layer 1"><g id="_6kcJDZ" data-name="6kcJDZ"><path class="cls-1" d="M24.1,136.84c-4.37-1.21-8.74-2.43-13.11-3.62-3.77-1-4.52-2.32-3.51-6.22,2.55-9.76,5.17-19.51,7.62-29.3a14.34,14.34,0,0,0-4.48-14.31c-9.11-8-12.5-17.28-9.62-29C3.83,42.91,8,32,15.79,22.87c6-7.07,13.49-11.43,22.89-11.9C37.07,15,35,18.81,34,22.9c-3.24,12.91-1,25.47,3.3,37.78C39.94,68.38,42.92,76,50,80.85,53.49,83.28,57.53,85,61.48,87c-2.93,2.91-7,4.34-11.28,5.44-7.06,1.82-12.28,5.46-14.1,13.12C34,114.52,31.5,123.37,29,132.21c-.47,1.65-1.64,3.09-2.49,4.63Zm-1.7-8.35c1-3.78,1.73-7.35,2.91-10.76,2.89-8.34,2.52-17.84,9-24.91l-11.6-3c1.31,13-5.73,24.32-7.08,37Z"/><path class="cls-1" d="M70,0C77.76.27,84.12,2.46,89.5,6.92,101.64,17,108.68,30.26,112.27,45.38c2,8.45-1.21,15.58-6.71,22-4.33,5.09-6.14,11-3.51,17.6q5.31,13.38,10.49,26.81c1.44,3.69.81,5.12-2.82,6.58s-7.51,3-11.28,4.44c-3.6,1.39-5.21.72-6.62-2.86-3.71-9.39-7.35-18.81-11.06-28.21A14.24,14.24,0,0,0,68.7,82.85c-12.92-1.2-21.14-7.51-25.59-19.43-4.07-10.9-6.91-22-5.77-33.76A31.89,31.89,0,0,1,65,.6C66.93.33,68.84.14,70,0ZM93.38,76.45l-11,4.32c8.2,10.08,9.83,23.08,15.75,34.17l6.59-2.62c-1.5-3.87-3.14-7.46-4.29-11.19C97.93,93,92.31,85.73,93.38,76.45ZM77.76,28a6.94,6.94,0,0,0,0,13.88,7.11,7.11,0,0,0,6.86-7.1A7,7,0,0,0,77.76,28"/></g></g></g></svg>