<svg xmlns="http://www.w3.org/2000/svg" viewBox="0 0 356 35"><style></style><path d="M13.9-.1C6.2-.1.1 5.3.1 11.8v.5c.5 9.8 13.8 22.6 13.8 22.6S27 22.1 27.7 12.3v-.5c0-6.5-6.3-11.9-13.8-11.9zm9.4 15.2c-.7.9-1.8.9-2.6.4l-.7-.6-.9 6.3c0 .4-.2.7-.4.9-.2.2-.4.4-.7.4h-2c-.9 0-.9-.7-.9-.9l.2-3c0-.4-.2-.7-.5-.7h-2.3c-.4 0-.5.4-.5.7l.2 3s0 .9-.9.9H9.2c-.2 0-.5-.2-.7-.4-.2-.2-.4-.5-.4-.9l-.9-6.3-.7.5c-.4.2-.7.4-1.1.4-.5 0-1.1-.2-1.4-.7-.7-.9-.5-1.9.4-2.6l8.1-6.3c.7-.5 1.6-.5 2.3 0l8.1 6.3c1 .7 1.1 1.9.4 2.6zM37.7 4.3c0-1.8 1.4-3.1 3.2-3.1S44 2.5 44 4.3s-1.4 3.1-3.1 3.1-3.2-1.4-3.2-3.1zM37.9 9.3h6v19.1h-6zM48.2 1.1h11.2c6.5 0 10.5 3.9 10.5 9.4 0 6.3-4.9 9.6-11 9.6h-4.6v8.2h-6V1.1h-.1zm10.7 13.8c3 0 4.7-1.8 4.7-4.2 0-2.6-1.9-4.2-4.9-4.2H54v8.4h4.9zM71.6 7.6h6v4.2c1.2-2.8 3.2-4.7 6.7-4.6v6.1H84c-4 0-6.3 2.4-6.3 7.3v7.7h-6c-.1.1-.1-20.7-.1-20.7zM84.4 18.1c0-6.1 4.9-11 11.4-11S107 11.8 107 18c0 5.9-4.9 10.9-11.4 10.9s-11.2-4.7-11.2-10.8zm16.8 0c0-3.1-2.3-5.8-5.4-5.8-3.3 0-5.4 2.6-5.4 5.8 0 3.1 2.3 5.8 5.4 5.8 3.3 0 5.4-2.7 5.4-5.8zM109.4 7.6h6v3c1.4-1.9 3.5-3.3 6.5-3.3 4.9 0 9.4 3.9 9.4 10.9s-4.5 10.9-9.4 10.9c-3.2 0-5.1-1.4-6.5-3.1v8.9h-6V7.6zm16 10.5c0-3.5-2.3-5.8-5.1-5.8s-5.1 2.3-5.1 5.8 2.3 5.8 5.1 5.8 5.1-2.3 5.1-5.8zM132.7 18.1c0-6.1 4.2-11 10.3-11 7 0 10.2 5.4 10.2 11.4v1.6h-14.5c.5 2.6 2.5 4 5.1 4 1.9 0 3.5-.7 5.1-2.1l3.3 3c-1.9 2.5-4.7 3.9-8.6 3.9-6.2 0-10.9-4.3-10.9-10.8zm14.7-1.8c-.3-2.6-1.9-4.4-4.4-4.4-2.4 0-4 1.8-4.5 4.4h8.9zM155.6 7.6h5.9v4.2c1.2-2.8 3.2-4.7 6.7-4.6v6.1h-.2c-4 0-6.3 2.4-6.3 7.3v7.7h-6l-.1-20.7zM173 22.5v-10h-2.4V7.4h2.4V2h5.9v5.4h4.9v5.1h-4.9v8.9c0 1.4.5 2.1 1.9 2.1 1.1 0 2.1-.4 3-.7v4.7c-1.2.7-2.6 1.2-4.7 1.2-3.7.1-6.1-1.3-6.1-6.2zM185.9 33.3l1.9-4.4c.7.5 1.8.9 2.4.9 1.1 0 1.6-.4 2.1-1.4l-8.2-21h6.3l4.7 14.2 4.6-14.2h6.1l-8.1 21.4c-1.6 4.2-3.3 5.8-6.8 5.8-1.8.3-3.4-.4-5-1.3zM335.9 33.3l1.9-4.4c.7.5 1.8.9 2.4.9 1.1 0 1.6-.4 2.1-1.4l-8.2-21h6.3l4.7 14.2 4.5-14.2h6.1l-8 21.4c-1.6 4.2-3.3 5.8-6.8 5.8-1.9.3-3.4-.4-5-1.3zM204.1 25.3c0-1.8 1.4-3.1 3.1-3.1s3.2 1.4 3.2 3.1-1.4 3.1-3.2 3.1c-1.5 0-3.1-1.4-3.1-3.1zM291.1 25.3c0-1.8 1.4-3.1 3.2-3.1s3.1 1.4 3.1 3.1-1.4 3.1-3.1 3.1-3.2-1.4-3.2-3.1zM211.8 18.1c0-6.1 4.6-11 11-11 4 0 6.5 1.4 8.4 3.5l-3.7 3.9c-1.4-1.4-2.6-2.3-4.7-2.3-3 0-5.1 2.6-5.1 5.8 0 3.1 2.1 5.8 5.2 5.8 1.9 0 3.3-.9 4.7-2.3l3.5 3.5c-2.1 2.3-4.4 3.9-8.6 3.9-6.1 0-10.7-4.9-10.7-10.8zM231.6 18.1c0-6.1 4.9-11 11.4-11s11.2 4.7 11.2 10.9c0 5.9-4.9 10.9-11.4 10.9s-11.2-4.7-11.2-10.8zm16.8 0c0-3.1-2.3-5.8-5.4-5.8-3.3 0-5.4 2.6-5.4 5.8 0 3.1 2.3 5.8 5.4 5.8 3.3 0 5.4-2.7 5.4-5.8zM256.6 7.6h5.9v3c1.4-1.8 3.1-3.3 6.1-3.3 2.8 0 4.7 1.2 5.9 3.3 1.8-2.1 4-3.3 6.8-3.3 4.4 0 7 2.6 7 7.7v13.7h-6V16.9c0-2.8-1.2-4.2-3.5-4.2s-3.7 1.4-3.7 4.2v11.7h-5.8V16.9c0-2.8-1.2-4.2-3.5-4.2s-3.7 1.4-3.7 4.2v11.7h-5.9v-21h.4zM300.4 7.6h5.9v3c1.4-1.8 3.1-3.3 6.1-3.3 2.8 0 4.7 1.2 5.9 3.3 1.8-2.1 4-3.3 6.8-3.3 4.4 0 7 2.6 7 7.7v13.7h-6V16.9c0-2.8-1.2-4.2-3.5-4.2s-3.7 1.4-3.7 4.2v11.7h-5.8V16.9c0-2.8-1.2-4.2-3.5-4.2s-3.7 1.4-3.7 4.2v11.7H300v-21h.4z"/></svg>