<svg xmlns="http://www.w3.org/2000/svg" xmlns:xlink="http://www.w3.org/1999/xlink" viewBox="0 0 300 44.69"><defs><clipPath id="a"><rect x="0.69" y="1.16" width="298.61" height="42.65" fill="none"></rect></clipPath><clipPath id="b"><rect x="0.69" y="1.16" width="298.61" height="42.65" fill="none"></rect></clipPath><clipPath id="c"><path d="M15.13,17.17c4.4-5.24,10.67-7.34,14.57-5.05a13.81,13.81,0,0,1-.17,4.47c-1.69-1.05-3.16-2-3.6-2.22a1.33,1.33,0,0,0-2.14.77,18.43,18.43,0,0,1-3.53,6.33A16.36,16.36,0,0,1,11,27.28a16.48,16.48,0,0,1,4.13-10.11m.66-14.11-.08,0c-.26.12-.51.23-.76.36s-.63.31-.94.48-.46.25-.7.38l-.37.23c-.24.14-.49.3-.74.47-.46.3-.92.61-1.36,1-.24.17-.46.36-.69.54-.47.38-.93.79-1.39,1.22-.18.16-.36.34-.53.51a4.27,4.27,0,0,0-.36.38l-.09.09c-.14.13-.27.28-.4.42l0,0L6.59,10l-.49.59c-.14.2-.28.39-.43.58A26.27,26.27,0,0,0,4,13.66c-.17.29-.33.57-.49.88s-.32.61-.47.94-.3.63-.43.94-.21.5-.3.74c-.17.42-.32.82-.45,1.24-.21.63-.38,1.26-.52,1.87-.08.33-.14.66-.21,1s-.12.65-.16,1a2.36,2.36,0,0,1,0,.28c0,.23-.06.46-.08.68s0,.55,0,.82c-.29,5.1,1.4,9.85,5.1,12.94,6.9,5.81,18.29,3.69,25.78-4.63a7,7,0,0,0,.63-.71,23.1,23.1,0,0,0,1.56-2.05c.21-.3.42-.63.62-.94a.75.75,0,0,0,.09-.15c.17-.27.33-.55.48-.82a21.2,21.2,0,0,0,1.14-2.29l.08-.18c.28-.64.53-1.27.74-1.91a.24.24,0,0,1,0-.09c0-.12.08-.25.12-.41,2.12-6.9.75-14-4.18-18.09a14.43,14.43,0,0,0-9.42-3.29,19.71,19.71,0,0,0-7.78,1.69" fill="none"></path></clipPath><linearGradient id="d" x1="5.13" y1="-127.74" x2="5.8" y2="-127.74" gradientTransform="matrix(0, 36.81, 36.81, 0, 4722.14, -179.94)" gradientUnits="userSpaceOnUse"><stop offset="0" stop-color="#512da8"></stop><stop offset="0.14" stop-color="#552fb1"></stop><stop offset="0.38" stop-color="#6236c9"></stop><stop offset="0.54" stop-color="#6c3cde"></stop><stop offset="0.68" stop-color="#6739d3"></stop><stop offset="0.91" stop-color="#5831b6"></stop><stop offset="1" stop-color="#512da8"></stop></linearGradient><clipPath id="f"><path d="M4,13.66c-.17.29-.33.57-.49.88s-.32.61-.47.94-.3.63-.43.94-.21.5-.3.74c-.17.42-.32.82-.45,1.24-.21.63-.38,1.26-.52,1.87-.08.33-.14.66-.21,1,0,.06,0,.1,0,.15h0L1,22.16a3.31,3.31,0,0,1,0,.33c0,.23-.06.46-.08.68s0,.55,0,.82c-.29,5.1,1.4,9.85,5.1,12.94,6.9,5.81,18.29,3.69,25.78-4.63a7,7,0,0,0,.63-.71,23.1,23.1,0,0,0,1.56-2.05c.21-.3.42-.63.62-.94a.75.75,0,0,0,.09-.15c.17-.27.33-.55.48-.82a21.2,21.2,0,0,0,1.14-2.29l.08-.18c.28-.64.51-1.27.74-1.91a.24.24,0,0,1,0-.09c0-.12.08-.25.12-.41a1.69,1.69,0,0,0-.94-2c-.5-.3-1.78-1.11-3.3-2.06l-3.4-2.11c-1.69-1.05-3.16-2-3.6-2.22a1.33,1.33,0,0,0-2.14.77,18.43,18.43,0,0,1-3.53,6.33A16.36,16.36,0,0,1,11,27.28a7.26,7.26,0,0,1-6.14-1.35C1.35,23,1.78,16.59,5.67,11.17A26.27,26.27,0,0,0,4,13.66" fill="none"></path></clipPath><linearGradient id="g" x1="-3.48" y1="-127.01" x2="-2.82" y2="-127.01" gradientTransform="matrix(0, -48.91, -48.91, 0, -6192.45, -127.58)" gradientUnits="userSpaceOnUse"><stop offset="0" stop-color="#a13434"></stop><stop offset="0.31" stop-color="#ff5252"></stop><stop offset="0.73" stop-color="#ff5252"></stop><stop offset="0.99" stop-color="#a13434"></stop><stop offset="1" stop-color="#a13434"></stop></linearGradient><clipPath id="h"><path d="M.69,25.62v0A18.13,18.13,0,0,0,7,39.77c7.66,6.43,19.6,5,27.69-2.93a1.31,1.31,0,0,0-.21-2.11c-.28-.24-1.46-1.3-2.76-2.43s-3-2.63-3.42-2.95l-.05,0a2,2,0,0,0-2.75.12,23.86,23.86,0,0,1-7.87,5.18c-4.81,1.88-9.66,1.64-13-1.17C1.64,31,.44,26.92.94,22.49a2.36,2.36,0,0,0,0-.28v-.05l.12-.76a22.51,22.51,0,0,0-.41,4.22" fill="none"></path></clipPath><linearGradient id="i" x1="-2.52" y1="-129.58" x2="-1.85" y2="-129.58" gradientTransform="matrix(53.02, 0, 0, -53.02, 134.78, -6836.68)" gradientUnits="userSpaceOnUse"><stop offset="0" stop-color="#fff720"></stop><stop offset="0.04" stop-color="#fcf720"></stop><stop offset="0.14" stop-color="#f2f51e"></stop><stop offset="0.32" stop-color="#d7f01a"></stop><stop offset="0.54" stop-color="#aae912"></stop><stop offset="0.81" stop-color="#6dde08"></stop><stop offset="1" stop-color="#3cd500"></stop></linearGradient><clipPath id="j"><path d="M24.43,1.16a21.84,21.84,0,0,0-8.64,1.9l-.08,0c-.26.12-.51.23-.76.36s-.63.31-.94.48-.46.25-.7.38l-.37.23c-.24.14-.49.3-.74.47-.46.3-.92.61-1.36,1-.24.17-.46.36-.69.54-.47.38-.93.79-1.39,1.22-.18.16-.36.34-.53.51a4.27,4.27,0,0,0-.36.38c5.69-5.7,13.63-7.17,18.4-3.17a10,10,0,0,1,3.43,6.69,13.81,13.81,0,0,1-.17,4.47,14,14,0,0,1-.46,1.94,2.18,2.18,0,0,0,1,2.41l2.18,1.5c1.22.84,2.73,1.84,4,2.72s2.44,1.63,2.79,1.85c1.17.71,1.85,0,2-.47C43.68,18.64,42,10.23,36,5.19a17.64,17.64,0,0,0-11.31-4Z" fill="none"></path></clipPath><linearGradient id="k" x1="3.19" y1="-125.06" x2="3.85" y2="-125.06" gradientTransform="matrix(-48.01, 0, 0, 48.01, 198.28, 6018.81)" gradientUnits="userSpaceOnUse"><stop offset="0" stop-color="#81ffef"></stop><stop offset="0.02" stop-color="#7ffaef"></stop><stop offset="0.47" stop-color="#4c7eea"></stop><stop offset="0.78" stop-color="#2c30e7"></stop><stop offset="0.92" stop-color="#1f12e6"></stop><stop offset="1" stop-color="#1904e5"></stop></linearGradient></defs><g clip-path="url(#a)"><g clip-path="url(#b)"><path d="M66.06,9.31c4.08,0,11.36,1.71,11.36,6.56v3H73.48V17.11c0-2.53-4.29-3.82-7.33-3.82-6.09,0-10.81,4.59-10.81,11.41,0,6.6,4.76,11.87,10.94,11.87a13.43,13.43,0,0,0,9.56-4.11l2.31,3.09a16.39,16.39,0,0,1-11.92,5.06c-9,0-15.34-7-15.34-15.91C50.89,16,57.4,9.31,66.06,9.31" fill="#111"></path><path d="M83.9,13.51H81.11V9.82H93.37c9.22,0,15.31,5.53,15.31,15.09s-6.09,15.18-15.31,15.18H86.64c-1.93,0-2.74-.81-2.74-2.74ZM89.13,36.4h3.94c6.74,0,11.15-4,11.15-11.49s-4.46-11.4-11.15-11.4H88.19v22a.85.85,0,0,0,.94.94" fill="#111"></path><path d="M111.77,36.4h1.84a.86.86,0,0,0,1-.94V9.82h3.9L131.92,29c1.11,1.62,2.53,4.11,2.53,4.11h.08a41.12,41.12,0,0,1-.3-4.11V12.57c0-1.93.82-2.75,2.79-2.75h4.29v3.69h-1.84a.84.84,0,0,0-.95.94V40.09h-3.86l-13.5-19.16c-1.12-1.63-2.49-4.12-2.49-4.12h-.08s.25,2.44.25,4.12V37.35c0,1.93-.81,2.74-2.74,2.74h-4.33Z" fill="#111"></path><path d="M155.16,17.88c6.09,0,9.35,4.55,9.35,10.16,0,.56-.13,1.72-.13,1.72H148.56A7.26,7.26,0,0,0,156,37a10,10,0,0,0,6.34-2.53l1.8,3a12.66,12.66,0,0,1-8.36,3.18,11.06,11.06,0,0,1-11.53-11.37c0-6.9,4.71-11.36,10.89-11.36m5.06,8.83c-.13-3.6-2.4-5.53-5.1-5.53a6.25,6.25,0,0,0-6.39,5.53Z" fill="#111"></path><path d="M170.21,21.74h-2.83V18.4h2.91v-6h4.08v6h5.18v3.34h-5.18v10c0,4.33,3,4.88,4.58,4.88a5.43,5.43,0,0,0,1-.08v3.69a11.41,11.41,0,0,1-1.46.08c-2.74,0-8.27-.86-8.27-8.1Z" fill="#111"></path><path d="M183.41,22.81c-.21-.68-.64-.86-1.33-.86h-.6V18.4h2.62c1.93,0,2.66.47,3.22,2.31l3.85,12.91a16.57,16.57,0,0,1,.52,2.31h.08s.26-1.2.6-2.31l4.68-15.14h3.81l4.72,15.14a23.69,23.69,0,0,1,.56,2.31h.08a16.57,16.57,0,0,1,.52-2.31l3.81-12.91c.56-1.84,1.33-2.31,3.26-2.31h2.57V22h-.6a1.17,1.17,0,0,0-1.33.86l-5.7,17.28h-4.67l-4.5-13.93c-.35-1.12-.6-2.36-.6-2.36h-.09s-.26,1.24-.6,2.36l-4.46,13.93h-4.71Z" fill="#111"></path><path d="M229.59,17.88c6.47,0,11.71,4.76,11.71,11.32a11.69,11.69,0,0,1-23.37,0c0-6.56,5.19-11.32,11.66-11.32m0,19.12a7.49,7.49,0,0,0,7.46-7.8,7.45,7.45,0,1,0-14.88,0,7.48,7.48,0,0,0,7.42,7.8" fill="#111"></path><path d="M246.48,22.9a.84.84,0,0,0-.94-.95h-1.76V18.4h3.95c1.88,0,2.78.77,2.78,2.53V22.3a13.41,13.41,0,0,1-.08,1.5h.08c1-3.17,3.52-5.66,6.86-5.66a9.08,9.08,0,0,1,1.12.08v4.12a6.16,6.16,0,0,0-1.25-.13c-2.65,0-5.1,1.89-6.08,5.1a13.11,13.11,0,0,0-.52,3.9v8.88h-4.16Z" fill="#111"></path><path d="M262.48,14.32a.84.84,0,0,0-1-.94h-1.75V9.82h4.11c1.93,0,2.75.56,2.75,2.49V26.37h1.92a2.81,2.81,0,0,0,2.28-.94l5-7h4.76l-5.87,8.06a5.2,5.2,0,0,1-1.63,1.62v.09s.73.26,1.46,1.63l3.21,5.87c.35.69.77.86,1.85.86H281v3.56h-3c-2,0-2.65-.34-3.6-2l-3.94-7.29a2.31,2.31,0,0,0-2.15-.9h-1.62v10.2h-4.16Z" fill="#111"></path><path d="M284.81,34a9.21,9.21,0,0,0,6.56,3.22c2,0,3.78-.9,3.78-2.79,0-3.9-11.84-3.47-11.84-10.46,0-4.16,3.65-6.09,8.06-6.09,2.62,0,7.12.9,7.12,4.2v2.06h-3.73V23.07c0-1.29-1.93-1.84-3.26-1.84-2.44,0-4,.85-4,2.57,0,4.11,11.84,3.21,11.84,10.46,0,3.86-3.43,6.34-8,6.34a11.15,11.15,0,0,1-8.66-3.81Z" fill="#111"></path></g><g clip-path="url(#c)"><rect x="0.52" y="1.37" width="38.77" height="41.37" fill="url(#d)"></rect></g><g clip-path="url(#b)"><path d="M32.93,18.7a13.5,13.5,0,0,1-.65,3.74,18.25,18.25,0,0,1-3.47,6.21c-.19.23-.39.46-.59.66C25,32.8,21,34.71,17.6,34.61a6.69,6.69,0,0,1-4.2-1.5A7.39,7.39,0,0,1,11,27.28a16.36,16.36,0,0,0,9.26-5.81,18.43,18.43,0,0,0,3.53-6.33,1.33,1.33,0,0,1,2.14-.77c.44.26,1.91,1.17,3.6,2.22a13.81,13.81,0,0,0,.17-4.47,5.24,5.24,0,0,1,.84.58,7.44,7.44,0,0,1,2.39,6" fill="#fff"></path></g><g clip-path="url(#f)"><rect x="-0.78" y="9.62" width="39.4" height="34.66" transform="translate(-2.28 1.75) rotate(-5)" fill="url(#g)"></rect></g><g clip-path="url(#h)"><rect x="-2.68" y="12.32" width="41.48" height="42.97" transform="translate(-19.56 26.45) rotate(-50.83)" fill="url(#i)"></rect></g><g clip-path="url(#j)"><rect x="3.81" y="-7.68" width="43.93" height="44.24" transform="translate(-2.46 23.14) rotate(-46.38)" fill="url(#k)"></rect></g></g></svg>