<?xml version="1.0" standalone="no"?>
<!DOCTYPE svg PUBLIC "-//W3C//DTD SVG 1.1//EN" "http://www.w3.org/Graphics/SVG/1.1/DTD/svg11.dtd" >
<svg xmlns="http://www.w3.org/2000/svg" xmlns:xlink="http://www.w3.org/1999/xlink" version="1.1">
<metadata>
Created by FontForge 20160405 at Tue Jun 20 07:16:26 2017
 By www-data
Copyright (c) 2009 by Peugeot. All rights reserved.
</metadata>
<defs>
<font id="Peugeot-Light" horiz-adv-x="578" >
  <font-face 
    font-family="Peugeot Light"
    font-weight="300"
    font-stretch="normal"
    units-per-em="1000"
    panose-1="2 0 5 3 4 0 0 2 0 3"
    ascent="800"
    descent="-200"
    x-height="475"
    cap-height="676"
    bbox="-29 -237 1176 1040"
    underline-thickness="60"
    underline-position="-142"
    stemh="50"
    stemv="51"
    unicode-range="U+0020-FB02"
  />
<missing-glyph horiz-adv-x="552" 
d="M438 676v-676h-323v676h323zM276 284l-97 -235h194zM179 627l97 -236l97 236h-194zM298 338l95 -229v458zM254 338l-94 229v-458z" />
    <glyph glyph-name="fi" unicode="fi" horiz-adv-x="532" 
d="M30 475h69v63c0 126 82 184 182 184c70 0 123 -17 159 -37v-57c-40 27 -92 46 -158 46c-82 0 -132 -39 -132 -136v-63h291v-475h-51v427h-240v-427h-51v427h-69v48z" />
    <glyph glyph-name="fl" unicode="fl" horiz-adv-x="564" 
d="M30 475h69v63c0 133 89 184 184 184c60 0 113 -17 156 -44v-586c0 -36 18 -54 45 -54c23 0 43 5 62 16v-52c-19 -9 -40 -14 -62 -14c-58 0 -96 32 -96 104v559c-30 14 -68 23 -104 23c-76 0 -134 -32 -134 -136v-63h128v-48h-128v-427h-51v427h-69v48z" />
    <glyph glyph-name=".notdef" horiz-adv-x="552" 
d="M438 676v-676h-323v676h323zM276 284l-97 -235h194zM179 627l97 -236l97 236h-194zM298 338l95 -229v458zM254 338l-94 229v-458z" />
    <glyph glyph-name="space" unicode=" " horiz-adv-x="244" 
 />
    <glyph glyph-name="a" unicode="a" horiz-adv-x="562" 
d="M471 448v-448h-49l-2 57c-38 -38 -86 -69 -160 -69c-113 0 -206 85 -206 250c0 173 118 249 248 249c57 0 116 -14 169 -39zM420 413c-38 15 -78 24 -119 24c-101 0 -195 -55 -195 -198c0 -141 72 -201 162 -201c61 0 112 31 152 81v294z" />
    <glyph glyph-name="b" unicode="b" horiz-adv-x="566" 
d="M94 710h51v-281c31 23 81 58 158 58c113 0 209 -84 209 -247c0 -156 -90 -252 -237 -252c-74 0 -133 19 -181 44v678zM145 374v-309c36 -17 85 -27 127 -27c99 0 187 53 187 202c0 134 -71 197 -157 197c-62 0 -120 -30 -157 -63z" />
    <glyph glyph-name="c" unicode="c" horiz-adv-x="491" 
d="M424 462v-55c-36 19 -80 30 -123 30c-110 0 -194 -59 -194 -199s84 -200 192 -200c56 0 99 20 132 42v-57c-36 -22 -81 -35 -138 -35c-142 0 -239 100 -239 250s97 249 245 249c46 0 89 -8 125 -25z" />
    <glyph glyph-name="d" unicode="d" horiz-adv-x="562" 
d="M420 119v295c-34 15 -77 23 -117 23c-101 0 -197 -53 -197 -199c0 -140 72 -200 162 -200c61 0 112 31 152 81zM420 467v243h51v-710h-49l-2 57c-40 -41 -91 -69 -160 -69c-113 0 -206 85 -206 250c0 175 120 249 249 249c40 0 79 -7 117 -20z" />
    <glyph glyph-name="e" unicode="e" horiz-adv-x="537" 
d="M488 227h-382c6 -137 95 -189 195 -189c59 0 121 18 174 49v-56c-53 -28 -115 -43 -175 -43c-129 0 -246 71 -246 249c0 149 85 250 222 250c147 0 212 -115 212 -228v-32zM108 276h327c-1 82 -58 161 -159 161c-100 0 -155 -59 -168 -161z" />
    <glyph glyph-name="f" unicode="f" horiz-adv-x="303" 
d="M291 475v-48h-141v-427h-51v427h-69v48h69v91c0 106 68 156 143 156c23 0 42 -3 61 -10v-52c-19 9 -41 12 -61 12c-50 0 -92 -30 -92 -106v-91h141z" />
    <glyph glyph-name="g" unicode="g" horiz-adv-x="562" 
d="M89 -157v58c35 -23 96 -53 168 -53c90 0 163 36 163 157v52c-38 -39 -87 -69 -160 -69c-113 0 -206 85 -206 250c0 173 118 249 248 249c57 0 116 -14 169 -39v-444c0 -144 -89 -206 -212 -206c-78 0 -133 24 -170 45zM420 119v294c-38 15 -78 24 -119 24
c-101 0 -195 -55 -195 -198c0 -141 72 -201 162 -201c62 0 112 31 152 81z" />
    <glyph glyph-name="h" unicode="h" horiz-adv-x="565" 
d="M142 710v-281c42 33 93 58 161 58c100 0 178 -61 178 -175v-312h-51v309c0 87 -56 128 -131 128c-57 0 -114 -24 -157 -63v-374h-51v710h51z" />
    <glyph glyph-name="i" unicode="i" horiz-adv-x="233" 
d="M91 475h51v-475h-51v475zM91 676h51v-84h-51v84z" />
    <glyph glyph-name="j" unicode="j" horiz-adv-x="233" 
d="M91 676h51v-84h-51v84zM91 475h51v-573c0 -76 -42 -104 -96 -104c-21 0 -43 5 -61 14v52c16 -9 37 -16 56 -16c27 0 50 14 50 54v573z" />
    <glyph glyph-name="k" unicode="k" horiz-adv-x="476" 
d="M470 475l-278 -217l284 -258h-71l-263 233v-233h-51v710h51v-433l254 198h74z" />
    <glyph glyph-name="l" unicode="l" horiz-adv-x="264" 
d="M88 710h51v-618c0 -36 17 -54 45 -54c23 0 42 5 61 16v-52c-19 -9 -40 -14 -61 -14c-59 0 -96 32 -96 104v618z" />
    <glyph glyph-name="m" unicode="m" horiz-adv-x="884" 
d="M464 367c4 -15 7 -40 7 -58v-309h-51v306c0 90 -57 131 -127 131c-57 0 -108 -24 -151 -63v-374h-51v475h47l4 -46c42 33 89 58 156 58c64 0 120 -30 149 -80c49 46 109 80 180 80c94 0 173 -64 173 -178v-309h-51v306c0 87 -57 131 -127 131c-57 0 -109 -25 -158 -70z
" />
    <glyph glyph-name="n" unicode="n" horiz-adv-x="565" 
d="M91 475h47l4 -46c42 33 93 58 161 58c100 0 178 -61 178 -175v-312h-51v309c0 87 -56 128 -131 128c-57 0 -114 -24 -157 -63v-374h-51v475z" />
    <glyph glyph-name="o" unicode="o" horiz-adv-x="592" 
d="M538 237c0 -149 -100 -249 -242 -249s-242 100 -242 249s100 250 242 250s242 -101 242 -250zM485 237c0 127 -77 200 -189 200s-190 -73 -190 -200s78 -199 190 -199s189 72 189 199z" />
    <glyph glyph-name="p" unicode="p" horiz-adv-x="562" 
d="M91 475h47l4 -46c31 23 81 58 158 58c113 0 208 -84 208 -247c0 -168 -103 -252 -226 -252c-46 0 -98 12 -140 39v-217h-51v665zM142 374v-295c43 -29 92 -41 138 -41c93 0 175 59 175 202c0 137 -74 197 -158 197c-61 0 -119 -30 -155 -63z" />
    <glyph glyph-name="q" unicode="q" horiz-adv-x="562" 
d="M471 448v-638h-51v248c-38 -39 -87 -70 -160 -70c-113 0 -206 85 -206 250c0 173 118 249 248 249c57 0 116 -14 169 -39zM420 413c-38 15 -78 24 -119 24c-101 0 -195 -55 -195 -198c0 -141 72 -201 162 -201c63 0 112 31 152 81v294z" />
    <glyph glyph-name="r" unicode="r" horiz-adv-x="357" 
d="M91 475h47l4 -75c42 47 112 87 183 87v-55c-72 0 -132 -35 -183 -88v-344h-51v475z" />
    <glyph glyph-name="s" unicode="s" horiz-adv-x="464" 
d="M397 453v-56c-37 24 -99 40 -155 40c-68 0 -133 -24 -133 -85c0 -128 299 -40 299 -225c0 -94 -79 -139 -181 -139c-64 0 -121 15 -169 44v55c50 -31 106 -49 169 -49c79 0 128 26 128 86c0 137 -298 44 -298 225c0 91 82 138 186 138c53 0 122 -15 154 -34z" />
    <glyph glyph-name="t" unicode="t" horiz-adv-x="327" 
d="M297 475v-48h-151v-303c0 -68 33 -86 78 -86c27 0 56 9 82 25v-53c-25 -14 -56 -22 -88 -22c-68 0 -123 39 -123 137v302h-70v48h70l8 151h43v-151h151z" />
    <glyph glyph-name="u" unicode="u" horiz-adv-x="548" 
d="M81 475h51v-294c0 -103 46 -143 125 -143c61 0 109 31 149 81v356h51v-475h-48l-3 57c-40 -39 -86 -69 -155 -69c-101 0 -170 59 -170 189v298z" />
    <glyph glyph-name="v" unicode="v" horiz-adv-x="459" 
d="M455 475l-204 -475h-51l-196 475h56l169 -416l173 416h53z" />
    <glyph glyph-name="w" unicode="w" horiz-adv-x="763" 
d="M13 475h53l134 -415l155 415h53l156 -415l133 415h54l-157 -475h-56l-156 412l-157 -412h-56z" />
    <glyph glyph-name="x" unicode="x" horiz-adv-x="437" 
d="M425 475l-177 -234l180 -241h-63l-148 200l-151 -200h-58l180 238l-174 237h61l144 -195l150 195h56z" />
    <glyph glyph-name="y" unicode="y" horiz-adv-x="548" 
d="M105 -167v57c37 -21 85 -42 153 -42c82 0 148 45 148 157v53c-40 -40 -88 -70 -155 -70c-101 0 -170 59 -170 189v298h51v-294c0 -103 46 -143 125 -143c61 0 109 31 149 81v356h51v-467c0 -137 -84 -210 -199 -210c-68 0 -117 16 -153 35z" />
    <glyph glyph-name="z" unicode="z" horiz-adv-x="456" 
d="M405 475v-38l-295 -390h301v-47h-365v38l292 390h-285v47h352z" />
    <glyph glyph-name="agrave" unicode="&#xe0;" horiz-adv-x="562" 
d="M471 448v-448h-49l-2 57c-38 -38 -86 -69 -160 -69c-113 0 -206 85 -206 250c0 173 118 249 248 249c57 0 116 -14 169 -39zM420 413c-38 15 -78 24 -119 24c-101 0 -195 -55 -195 -198c0 -141 72 -201 162 -201c61 0 112 31 152 81v294zM222 710l84 -151h-46l-100 151
h62z" />
    <glyph glyph-name="aacute" unicode="&#xe1;" horiz-adv-x="562" 
d="M471 448v-448h-49l-2 57c-38 -38 -86 -69 -160 -69c-113 0 -206 85 -206 250c0 173 118 249 248 249c57 0 116 -14 169 -39zM420 413c-38 15 -78 24 -119 24c-101 0 -195 -55 -195 -198c0 -141 72 -201 162 -201c61 0 112 31 152 81v294zM241 559l84 151h62l-100 -151
h-46z" />
    <glyph glyph-name="acircumflex" unicode="&#xe2;" horiz-adv-x="562" 
d="M471 448v-448h-49l-2 57c-38 -38 -86 -69 -160 -69c-113 0 -206 85 -206 250c0 173 118 249 248 249c57 0 116 -14 169 -39zM420 413c-38 15 -78 24 -119 24c-101 0 -195 -55 -195 -198c0 -141 72 -201 162 -201c61 0 112 31 152 81v294zM249 710h40l100 -151h-46l-74 99
l-74 -99h-46z" />
    <glyph glyph-name="abreve" unicode="&#x103;" horiz-adv-x="562" 
d="M471 448v-448h-49l-2 57c-38 -38 -86 -69 -160 -69c-113 0 -206 85 -206 250c0 173 118 249 248 249c57 0 116 -14 169 -39zM420 413c-38 15 -78 24 -119 24c-101 0 -195 -55 -195 -198c0 -141 72 -201 162 -201c61 0 112 31 152 81v294zM134 703h43c7 -54 36 -90 92 -90
s85 36 92 90h43c-6 -80 -53 -137 -135 -137s-129 57 -135 137z" />
    <glyph glyph-name="atilde" unicode="&#xe3;" horiz-adv-x="562" 
d="M471 448v-448h-49l-2 57c-38 -38 -86 -69 -160 -69c-113 0 -206 85 -206 250c0 173 118 249 248 249c57 0 116 -14 169 -39zM420 413c-38 15 -78 24 -119 24c-101 0 -195 -55 -195 -198c0 -141 72 -201 162 -201c61 0 112 31 152 81v294zM363 687h43
c0 -60 -22 -110 -77 -110c-52 0 -83 65 -125 65c-26 0 -30 -34 -30 -63h-43c0 60 22 110 77 110c51 0 93 -65 125 -65c26 0 30 34 30 63z" />
    <glyph glyph-name="adieresis" unicode="&#xe4;" horiz-adv-x="562" 
d="M471 448v-448h-49l-2 57c-38 -38 -86 -69 -160 -69c-113 0 -206 85 -206 250c0 173 118 249 248 249c57 0 116 -14 169 -39zM420 413c-38 15 -78 24 -119 24c-101 0 -195 -55 -195 -198c0 -141 72 -201 162 -201c61 0 112 31 152 81v294zM210 680v-83h-51v83h51zM379 680
v-83h-51v83h51z" />
    <glyph glyph-name="amacron" unicode="&#x101;" horiz-adv-x="562" 
d="M471 448v-448h-49l-2 57c-38 -38 -86 -69 -160 -69c-113 0 -206 85 -206 250c0 173 118 249 248 249c57 0 116 -14 169 -39zM420 413c-38 15 -78 24 -119 24c-101 0 -195 -55 -195 -198c0 -141 72 -201 162 -201c61 0 112 31 152 81v294zM388 657v-45h-238v45h238z" />
    <glyph glyph-name="aogonek" unicode="&#x105;" horiz-adv-x="562" 
d="M422 0l-2 57c-38 -38 -86 -69 -160 -69c-113 0 -206 85 -206 250c0 173 118 249 248 249c57 0 116 -14 169 -39v-448c-34 -30 -67 -61 -67 -110c0 -31 19 -47 47 -47c22 0 45 8 62 21v-48c-17 -10 -38 -18 -68 -18c-52 0 -86 34 -86 90c0 47 26 86 63 112zM420 413
c-38 15 -78 24 -119 24c-101 0 -195 -55 -195 -198c0 -141 72 -201 162 -201c61 0 112 31 152 81v294z" />
    <glyph glyph-name="aring" unicode="&#xe5;" horiz-adv-x="562" 
d="M471 448v-448h-49l-2 57c-38 -38 -86 -69 -160 -69c-113 0 -206 85 -206 250c0 173 118 249 248 249c57 0 116 -14 169 -39zM420 413c-38 15 -78 24 -119 24c-101 0 -195 -55 -195 -198c0 -141 72 -201 162 -201c61 0 112 31 152 81v294zM370 634c0 -59 -49 -90 -101 -90
s-101 31 -101 90c0 57 49 88 101 88s101 -31 101 -88zM328 633c0 33 -24 51 -59 51s-60 -18 -60 -51s25 -51 60 -51s59 18 59 51z" />
    <glyph glyph-name="aringacute" unicode="&#x1fb;" horiz-adv-x="562" 
d="M370 634c0 -59 -50 -90 -101 -90c-52 0 -102 31 -102 90c0 49 37 79 81 86l73 134h62l-93 -134c43 -8 80 -37 80 -86zM328 633c0 33 -25 51 -59 51c-35 0 -60 -18 -60 -51s25 -51 60 -51c34 0 59 18 59 51zM471 448v-448h-49l-2 57c-38 -38 -86 -69 -160 -69
c-113 0 -206 85 -206 250c0 173 118 249 248 249c57 0 116 -14 169 -39zM420 413c-38 15 -78 24 -119 24c-101 0 -195 -55 -195 -198c0 -141 72 -201 162 -201c61 0 112 31 152 81v294z" />
    <glyph glyph-name="ae" unicode="&#xe6;" horiz-adv-x="859" 
d="M810 227h-382c6 -137 95 -189 195 -189c60 0 121 18 174 49v-56c-53 -28 -114 -43 -175 -43c-73 0 -140 23 -187 74c-50 -49 -104 -74 -174 -74c-113 0 -207 85 -207 250c0 172 118 249 245 249c66 0 121 -15 171 -39c35 25 77 39 128 39c147 0 212 -115 212 -228v-32z
M428 409c-36 16 -80 28 -125 28c-98 0 -197 -50 -197 -198c0 -140 72 -201 162 -201c53 0 101 24 138 64c-20 41 -30 83 -30 135c0 70 18 128 52 172zM430 276h327c-1 82 -57 161 -159 161c-100 0 -155 -59 -168 -161z" />
    <glyph glyph-name="aeacute" unicode="&#x1fd;" horiz-adv-x="859" 
d="M810 227h-382c6 -137 95 -189 195 -189c60 0 121 18 174 49v-56c-53 -28 -114 -43 -175 -43c-73 0 -140 23 -187 74c-50 -49 -104 -74 -174 -74c-113 0 -207 85 -207 250c0 172 118 249 245 249c66 0 121 -15 171 -39c35 25 77 39 128 39c147 0 212 -115 212 -228v-32z
M428 409c-36 16 -80 28 -125 28c-98 0 -197 -50 -197 -198c0 -140 72 -201 162 -201c53 0 101 24 138 64c-20 41 -30 83 -30 135c0 70 18 128 52 172zM430 276h327c-1 82 -57 161 -159 161c-100 0 -155 -59 -168 -161zM416 559l84 151h62l-100 -151h-46z" />
    <glyph glyph-name="cacute" unicode="&#x107;" horiz-adv-x="491" 
d="M424 462v-55c-36 19 -80 30 -123 30c-110 0 -194 -59 -194 -199s84 -200 192 -200c56 0 99 20 132 42v-57c-36 -22 -81 -35 -138 -35c-142 0 -239 100 -239 250s97 249 245 249c46 0 89 -8 125 -25zM238 559l84 151h62l-100 -151h-46z" />
    <glyph glyph-name="ccircumflex" unicode="&#x109;" horiz-adv-x="491" 
d="M424 462v-55c-36 19 -80 30 -123 30c-110 0 -194 -59 -194 -199s84 -200 192 -200c56 0 99 20 132 42v-57c-36 -22 -81 -35 -138 -35c-142 0 -239 100 -239 250s97 249 245 249c46 0 89 -8 125 -25zM241 710h40l100 -151h-46l-74 99l-74 -99h-46z" />
    <glyph glyph-name="ccaron" unicode="&#x10d;" horiz-adv-x="491" 
d="M424 462v-55c-36 19 -80 30 -123 30c-110 0 -194 -59 -194 -199s84 -200 192 -200c56 0 99 20 132 42v-57c-36 -22 -81 -35 -138 -35c-142 0 -239 100 -239 250s97 249 245 249c46 0 89 -8 125 -25zM281 559h-40l-100 151h46l74 -99l74 99h46z" />
    <glyph glyph-name="cdotaccent" unicode="&#x10b;" horiz-adv-x="491" 
d="M424 462v-55c-36 19 -80 30 -123 30c-110 0 -194 -59 -194 -199s84 -200 192 -200c56 0 99 20 132 42v-57c-36 -22 -81 -35 -138 -35c-142 0 -239 100 -239 250s97 249 245 249c46 0 89 -8 125 -25zM235 680h51v-83h-51v83z" />
    <glyph glyph-name="ccedilla" unicode="&#xe7;" horiz-adv-x="490" 
d="M423 462v-55c-36 19 -80 30 -123 30c-110 0 -194 -59 -194 -199s84 -200 192 -200c56 0 99 20 132 42v-57c-36 -22 -81 -35 -138 -35c-8 0 -15 0 -23 1l-11 -41c55 0 80 -30 80 -75c0 -44 -34 -75 -89 -75c-20 0 -42 5 -57 12v46c10 -6 35 -14 58 -14s42 8 42 32
c0 28 -21 32 -47 32h-40l24 89c-107 25 -175 116 -175 243c0 150 96 249 244 249c46 0 89 -8 125 -25z" />
    <glyph glyph-name="dcaron" unicode="&#x10f;" horiz-adv-x="610" 
d="M554 710h50c5 -19 6 -37 6 -55c0 -59 -23 -104 -71 -142l-26 31c34 27 50 64 50 107c0 18 -3 38 -9 59zM420 119v295c-34 15 -77 23 -117 23c-101 0 -197 -53 -197 -199c0 -140 72 -200 162 -200c61 0 112 31 152 81zM420 467v243h51v-710h-49l-2 57
c-40 -41 -91 -69 -160 -69c-113 0 -206 85 -206 250c0 175 120 249 249 249c40 0 79 -7 117 -20z" />
    <glyph glyph-name="dcroat" unicode="&#x111;" horiz-adv-x="562" 
d="M216 586v43h204v81h51v-81h76v-43h-76v-586h-49l-2 57c-40 -41 -91 -69 -160 -69c-113 0 -206 85 -206 250c0 175 120 249 249 249c40 0 79 -7 117 -20v119h-204zM420 119v295c-34 15 -77 23 -117 23c-100 0 -197 -53 -197 -199c0 -140 72 -200 162 -200
c63 0 112 31 152 81z" />
    <glyph glyph-name="egrave" unicode="&#xe8;" horiz-adv-x="537" 
d="M488 227h-382c6 -137 95 -189 195 -189c59 0 121 18 174 49v-56c-53 -28 -115 -43 -175 -43c-129 0 -246 71 -246 249c0 149 85 250 222 250c147 0 212 -115 212 -228v-32zM108 276h327c-1 82 -58 161 -159 161c-100 0 -155 -59 -168 -161zM215 710l84 -151h-46l-100 151
h62z" />
    <glyph glyph-name="eacute" unicode="&#xe9;" horiz-adv-x="537" 
d="M488 227h-382c6 -137 95 -189 195 -189c59 0 121 18 174 49v-56c-53 -28 -115 -43 -175 -43c-129 0 -246 71 -246 249c0 149 85 250 222 250c147 0 212 -115 212 -228v-32zM108 276h327c-1 82 -58 161 -159 161c-100 0 -155 -59 -168 -161zM246 559l84 151h62l-100 -151
h-46z" />
    <glyph glyph-name="ecircumflex" unicode="&#xea;" horiz-adv-x="537" 
d="M488 227h-382c6 -137 95 -189 195 -189c59 0 121 18 174 49v-56c-53 -28 -115 -43 -175 -43c-129 0 -246 71 -246 249c0 149 85 250 222 250c147 0 212 -115 212 -228v-32zM108 276h327c-1 82 -58 161 -159 161c-100 0 -155 -59 -168 -161zM251 710h40l100 -151h-46
l-74 99l-74 -99h-46z" />
    <glyph glyph-name="ecaron" unicode="&#x11b;" horiz-adv-x="537" 
d="M488 227h-382c6 -137 95 -189 195 -189c59 0 121 18 174 49v-56c-53 -28 -115 -43 -175 -43c-129 0 -246 71 -246 249c0 149 85 250 222 250c147 0 212 -115 212 -228v-32zM108 276h327c-1 82 -58 161 -159 161c-100 0 -155 -59 -168 -161zM291 559h-40l-100 151h46
l74 -99l74 99h46z" />
    <glyph glyph-name="ebreve" unicode="&#x115;" horiz-adv-x="537" 
d="M488 227h-382c6 -137 95 -189 195 -189c59 0 121 18 174 49v-56c-53 -28 -115 -43 -175 -43c-129 0 -246 71 -246 249c0 149 85 250 222 250c147 0 212 -115 212 -228v-32zM108 276h327c-1 82 -58 161 -159 161c-100 0 -155 -59 -168 -161zM136 703h43
c7 -54 36 -90 92 -90s85 36 92 90h43c-6 -80 -53 -137 -135 -137s-129 57 -135 137z" />
    <glyph glyph-name="emacron" unicode="&#x113;" horiz-adv-x="537" 
d="M488 227h-382c6 -137 95 -189 195 -189c59 0 121 18 174 49v-56c-53 -28 -115 -43 -175 -43c-129 0 -246 71 -246 249c0 149 85 250 222 250c147 0 212 -115 212 -228v-32zM108 276h327c-1 82 -58 161 -159 161c-100 0 -155 -59 -168 -161zM390 657v-45h-238v45h238z" />
    <glyph glyph-name="edotaccent" unicode="&#x117;" horiz-adv-x="537" 
d="M488 227h-382c6 -137 95 -189 195 -189c59 0 121 18 174 49v-56c-53 -28 -115 -43 -175 -43c-129 0 -246 71 -246 249c0 149 85 250 222 250c147 0 212 -115 212 -228v-32zM108 276h327c-1 82 -58 161 -159 161c-100 0 -155 -59 -168 -161zM245 680h51v-83h-51v83z" />
    <glyph glyph-name="edieresis" unicode="&#xeb;" horiz-adv-x="537" 
d="M488 227h-382c6 -137 95 -189 195 -189c59 0 121 18 174 49v-56c-53 -28 -115 -43 -175 -43c-129 0 -246 71 -246 249c0 149 85 250 222 250c147 0 212 -115 212 -228v-32zM108 276h327c-1 82 -58 161 -159 161c-100 0 -155 -59 -168 -161zM212 680v-83h-51v83h51z
M381 680v-83h-51v83h51z" />
    <glyph glyph-name="eogonek" unicode="&#x119;" horiz-adv-x="537" 
d="M488 227h-382c6 -137 95 -189 195 -189c59 0 121 18 174 49v-56c-26 -14 -53 -24 -81 -31c-34 -30 -67 -61 -67 -110c0 -31 20 -47 48 -47c22 0 44 8 61 21v-48c-17 -10 -38 -18 -67 -18c-53 0 -87 34 -87 90c0 41 18 76 47 102c-9 -1 -19 -2 -29 -2
c-129 0 -246 71 -246 249c0 149 85 250 222 250c147 0 212 -115 212 -228v-32zM108 276h327c-1 82 -58 161 -159 161c-100 0 -155 -59 -168 -161z" />
    <glyph glyph-name="gcircumflex" unicode="&#x11d;" horiz-adv-x="562" 
d="M249 710h40l100 -151h-46l-74 99l-74 -99h-46zM89 -157v58c35 -23 96 -53 168 -53c90 0 163 36 163 157v52c-38 -39 -87 -69 -160 -69c-113 0 -206 85 -206 250c0 173 118 249 248 249c57 0 116 -14 169 -39v-444c0 -144 -89 -206 -212 -206c-78 0 -133 24 -170 45z
M420 119v294c-38 15 -78 24 -119 24c-101 0 -195 -55 -195 -198c0 -141 72 -201 162 -201c62 0 112 31 152 81z" />
    <glyph glyph-name="gbreve" unicode="&#x11f;" horiz-adv-x="562" 
d="M134 703h43c7 -54 36 -90 92 -90s85 36 92 90h43c-6 -80 -53 -137 -135 -137s-129 57 -135 137zM89 -157v58c35 -23 96 -53 168 -53c90 0 163 36 163 157v52c-38 -39 -87 -69 -160 -69c-113 0 -206 85 -206 250c0 173 118 249 248 249c57 0 116 -14 169 -39v-444
c0 -144 -89 -206 -212 -206c-78 0 -133 24 -170 45zM420 119v294c-38 15 -78 24 -119 24c-101 0 -195 -55 -195 -198c0 -141 72 -201 162 -201c62 0 112 31 152 81z" />
    <glyph glyph-name="gdotaccent" unicode="&#x121;" horiz-adv-x="562" 
d="M243 680h51v-83h-51v83zM89 -157v58c35 -23 96 -53 168 -53c90 0 163 36 163 157v52c-38 -39 -87 -69 -160 -69c-113 0 -206 85 -206 250c0 173 118 249 248 249c57 0 116 -14 169 -39v-444c0 -144 -89 -206 -212 -206c-78 0 -133 24 -170 45zM420 119v294
c-38 15 -78 24 -119 24c-101 0 -195 -55 -195 -198c0 -141 72 -201 162 -201c62 0 112 31 152 81z" />
    <glyph glyph-name="gcommaaccent" unicode="&#x123;" horiz-adv-x="562" 
d="M89 -157v58c35 -23 96 -53 168 -53c90 0 163 36 163 157v52c-38 -39 -87 -69 -160 -69c-113 0 -206 85 -206 250c0 173 118 249 248 249c57 0 116 -14 169 -39v-444c0 -144 -89 -206 -212 -206c-78 0 -133 24 -170 45zM420 119v294c-38 15 -78 24 -119 24
c-101 0 -195 -55 -195 -198c0 -141 72 -201 162 -201c62 0 112 31 152 81zM311 551h-48c-6 18 -8 33 -8 48c0 53 24 96 81 128l21 -37c-40 -24 -54 -53 -54 -89c0 -14 1 -29 8 -50z" />
    <glyph glyph-name="hcircumflex" unicode="&#x125;" horiz-adv-x="565" 
d="M142 710v-281c42 33 93 58 161 58c100 0 178 -61 178 -175v-312h-51v309c0 87 -56 128 -131 128c-57 0 -114 -24 -157 -63v-374h-51v710h51zM96 895h40l100 -151h-46l-74 99l-74 -99h-46z" />
    <glyph glyph-name="hbar" unicode="&#x127;" horiz-adv-x="565" 
d="M346 586h-204v-157c42 33 93 58 161 58c100 0 178 -61 178 -175v-312h-51v309c0 87 -56 128 -131 128c-57 0 -114 -24 -157 -63v-374h-51v586h-77v43h77v81h51v-81h204v-43z" />
    <glyph glyph-name="dotlessi" unicode="&#x131;" horiz-adv-x="233" 
d="M142 475v-475h-51v475h51z" />
    <glyph glyph-name="igrave" unicode="&#xec;" horiz-adv-x="233" 
d="M142 475v-475h-51v475h51zM56 710l84 -151h-46l-100 151h62z" />
    <glyph glyph-name="iacute" unicode="&#xed;" horiz-adv-x="233" 
d="M142 475v-475h-51v475h51zM93 559l84 151h62l-100 -151h-46z" />
    <glyph glyph-name="icircumflex" unicode="&#xee;" horiz-adv-x="233" 
d="M142 475v-475h-51v475h51zM96 710h40l100 -151h-46l-74 99l-74 -99h-46z" />
    <glyph glyph-name="ibreve" unicode="&#x12d;" horiz-adv-x="233" 
d="M142 475v-475h-51v475h51zM-19 703h43c7 -54 36 -90 92 -90s85 36 92 90h43c-6 -80 -53 -137 -135 -137s-129 57 -135 137z" />
    <glyph glyph-name="itilde" unicode="&#x129;" horiz-adv-x="233" 
d="M142 475v-475h-51v475h51zM211 688h43c0 -60 -22 -110 -77 -110c-52 0 -83 65 -125 65c-26 0 -30 -34 -30 -63h-43c0 60 22 110 77 110c51 0 93 -65 125 -65c26 0 30 34 30 63z" />
    <glyph glyph-name="imacron" unicode="&#x12b;" horiz-adv-x="233" 
d="M142 475v-475h-51v475h51zM235 657v-45h-238v45h238z" />
    <glyph glyph-name="idieresis" unicode="&#xef;" horiz-adv-x="233" 
d="M142 475v-475h-51v475h51zM57 680v-83h-51v83h51zM226 680v-83h-51v83h51z" />
    <glyph glyph-name="iogonek" unicode="&#x12f;" horiz-adv-x="233" 
d="M91 0v475h51v-475c-34 -30 -67 -61 -67 -110c0 -31 19 -47 47 -47c22 0 45 8 62 21v-48c-17 -10 -38 -18 -68 -18c-52 0 -86 34 -86 90c0 47 24 86 61 112zM142 676v-84h-51v84h51z" />
    <glyph glyph-name="jcircumflex" unicode="&#x135;" horiz-adv-x="233" 
d="M91 475h51v-573c0 -76 -42 -104 -96 -104c-21 0 -43 5 -61 14v52c16 -9 37 -16 56 -16c27 0 50 14 50 54v573zM96 710h40l100 -151h-46l-74 99l-74 -99h-46z" />
    <glyph glyph-name="kcommaaccent" unicode="&#x137;" horiz-adv-x="476" 
d="M470 475l-278 -217l284 -258h-71l-263 233v-233h-51v710h51v-433l254 198h74zM261 -61h48c6 -18 8 -33 8 -48c0 -53 -24 -96 -81 -128l-21 37c40 24 54 53 54 89c0 14 -1 29 -8 50z" />
    <glyph glyph-name="lacute" unicode="&#x13a;" horiz-adv-x="245" 
d="M88 710h51v-618c0 -36 17 -54 45 -54c23 0 42 5 61 16v-52c-19 -9 -40 -14 -61 -14c-59 0 -96 32 -96 104v618zM90 744l84 151h62l-100 -151h-46z" />
    <glyph glyph-name="lcaron" unicode="&#x13e;" horiz-adv-x="264" 
d="M222 710h50c5 -19 6 -37 6 -55c0 -59 -23 -104 -71 -142l-26 31c34 27 50 64 50 107c0 18 -3 38 -9 59zM88 710h51v-618c0 -36 17 -54 45 -54c23 0 42 5 61 16v-52c-19 -9 -40 -14 -61 -14c-59 0 -96 32 -96 104v618z" />
    <glyph glyph-name="lcommaaccent" unicode="&#x13c;" horiz-adv-x="264" 
d="M88 710h51v-618c0 -36 17 -54 45 -54c23 0 42 5 61 16v-52c-19 -9 -40 -14 -61 -14c-59 0 -96 32 -96 104v618zM146 -61h48c6 -18 8 -33 8 -48c0 -53 -24 -96 -81 -128l-21 37c40 24 54 53 54 89c0 14 -1 29 -8 50z" />
    <glyph glyph-name="lslash" unicode="&#x142;" horiz-adv-x="269" 
d="M93 710h51v-277l89 42v-49l-89 -42v-292c0 -36 18 -54 46 -54c22 0 42 5 61 16v-52c-19 -9 -40 -14 -61 -14c-59 0 -97 32 -97 104v268l-71 -34v49l71 34v301z" />
    <glyph glyph-name="nacute" unicode="&#x144;" horiz-adv-x="565" 
d="M91 475h47l4 -46c42 33 93 58 161 58c100 0 178 -61 178 -175v-312h-51v309c0 87 -56 128 -131 128c-57 0 -114 -24 -157 -63v-374h-51v475zM258 559l84 151h62l-100 -151h-46z" />
    <glyph glyph-name="ncaron" unicode="&#x148;" horiz-adv-x="565" 
d="M91 475h47l4 -46c42 33 93 58 161 58c100 0 178 -61 178 -175v-312h-51v309c0 87 -56 128 -131 128c-57 0 -114 -24 -157 -63v-374h-51v475zM302 559h-40l-100 151h46l74 -99l74 99h46z" />
    <glyph glyph-name="ntilde" unicode="&#xf1;" horiz-adv-x="565" 
d="M91 475h47l4 -46c42 33 93 58 161 58c100 0 178 -61 178 -175v-312h-51v309c0 87 -56 128 -131 128c-57 0 -114 -24 -157 -63v-374h-51v475zM377 687h43c0 -60 -22 -110 -77 -110c-52 0 -83 65 -125 65c-26 0 -30 -34 -30 -63h-43c0 60 22 110 77 110
c51 0 93 -65 125 -65c26 0 30 34 30 63z" />
    <glyph glyph-name="ncommaaccent" unicode="&#x146;" horiz-adv-x="565" 
d="M91 475h47l4 -46c42 33 93 58 161 58c100 0 178 -61 178 -175v-312h-51v309c0 87 -56 128 -131 128c-57 0 -114 -24 -157 -63v-374h-51v475zM260 -61h48c6 -18 8 -33 8 -48c0 -53 -24 -96 -81 -128l-21 37c40 24 54 53 54 89c0 14 -1 29 -8 50z" />
    <glyph glyph-name="ograve" unicode="&#xf2;" horiz-adv-x="592" 
d="M538 237c0 -149 -100 -249 -242 -249s-242 100 -242 249s100 250 242 250s242 -101 242 -250zM485 237c0 127 -77 200 -189 200s-190 -73 -190 -200s78 -199 190 -199s189 72 189 199zM236 710l84 -151h-46l-100 151h62z" />
    <glyph glyph-name="oacute" unicode="&#xf3;" horiz-adv-x="592" 
d="M538 237c0 -149 -100 -249 -242 -249s-242 100 -242 249s100 250 242 250s242 -101 242 -250zM485 237c0 127 -77 200 -189 200s-190 -73 -190 -200s78 -199 190 -199s189 72 189 199zM269 559l84 151h62l-100 -151h-46z" />
    <glyph glyph-name="ohungarumlaut" unicode="&#x151;" horiz-adv-x="592" 
d="M538 237c0 -149 -100 -249 -242 -249s-242 100 -242 249s100 250 242 250s242 -101 242 -250zM485 237c0 127 -77 200 -189 200s-190 -73 -190 -200s78 -199 190 -199s189 72 189 199zM360 710l-96 -151h-45l82 151h59zM501 710l-124 -151h-46l108 151h62z" />
    <glyph glyph-name="ocircumflex" unicode="&#xf4;" horiz-adv-x="592" 
d="M538 237c0 -149 -100 -249 -242 -249s-242 100 -242 249s100 250 242 250s242 -101 242 -250zM485 237c0 127 -77 200 -189 200s-190 -73 -190 -200s78 -199 190 -199s189 72 189 199zM276 710h40l100 -151h-46l-74 99l-74 -99h-46z" />
    <glyph glyph-name="obreve" unicode="&#x14f;" horiz-adv-x="592" 
d="M538 237c0 -149 -100 -249 -242 -249s-242 100 -242 249s100 250 242 250s242 -101 242 -250zM485 237c0 127 -77 200 -189 200s-190 -73 -190 -200s78 -199 190 -199s189 72 189 199zM161 703h43c7 -54 36 -90 92 -90s85 36 92 90h43c-6 -80 -53 -137 -135 -137
s-129 57 -135 137z" />
    <glyph glyph-name="otilde" unicode="&#xf5;" horiz-adv-x="592" 
d="M538 237c0 -149 -100 -249 -242 -249s-242 100 -242 249s100 250 242 250s242 -101 242 -250zM485 237c0 127 -77 200 -189 200s-190 -73 -190 -200s78 -199 190 -199s189 72 189 199zM391 687h43c0 -60 -22 -110 -77 -110c-52 0 -83 65 -125 65c-26 0 -30 -34 -30 -63
h-43c0 60 22 110 77 110c51 0 93 -65 125 -65c26 0 30 34 30 63z" />
    <glyph glyph-name="omacron" unicode="&#x14d;" horiz-adv-x="592" 
d="M538 237c0 -149 -100 -249 -242 -249s-242 100 -242 249s100 250 242 250s242 -101 242 -250zM485 237c0 127 -77 200 -189 200s-190 -73 -190 -200s78 -199 190 -199s189 72 189 199zM415 657v-45h-238v45h238z" />
    <glyph glyph-name="odieresis" unicode="&#xf6;" horiz-adv-x="592" 
d="M538 237c0 -149 -100 -249 -242 -249s-242 100 -242 249s100 250 242 250s242 -101 242 -250zM485 237c0 127 -77 200 -189 200s-190 -73 -190 -200s78 -199 190 -199s189 72 189 199zM237 680v-83h-51v83h51zM406 680v-83h-51v83h51z" />
    <glyph glyph-name="oslash" unicode="&#xf8;" horiz-adv-x="592" 
d="M538 237c0 -149 -100 -249 -242 -249c-50 0 -95 12 -132 34l-52 -70l-34 26l51 70c-47 44 -75 110 -75 189c0 149 100 250 242 250c49 0 94 -13 131 -35l49 65l33 -25l-48 -66c48 -44 77 -110 77 -189zM485 237c0 64 -20 115 -54 149l-237 -323c28 -17 63 -25 102 -25
c112 0 189 72 189 199zM106 237c0 -64 20 -114 53 -148l238 323c-28 16 -63 25 -101 25c-112 0 -190 -73 -190 -200z" />
    <glyph glyph-name="oslashacute" unicode="&#x1ff;" horiz-adv-x="592" 
d="M538 237c0 -149 -100 -249 -242 -249c-50 0 -95 12 -132 34l-52 -70l-34 26l51 70c-47 44 -75 110 -75 189c0 149 100 250 242 250c49 0 94 -13 131 -35l49 65l33 -25l-48 -66c48 -44 77 -110 77 -189zM485 237c0 64 -20 115 -54 149l-237 -323c28 -17 63 -25 102 -25
c112 0 189 72 189 199zM106 237c0 -64 20 -114 53 -148l238 323c-28 16 -63 25 -101 25c-112 0 -190 -73 -190 -200zM269 559l84 151h62l-100 -151h-46z" />
    <glyph glyph-name="oe" unicode="&#x153;" horiz-adv-x="964" 
d="M485 237c0 127 -77 200 -189 200s-190 -73 -190 -200s78 -199 190 -199s189 72 189 199zM862 276c-1 82 -58 161 -159 161c-100 0 -156 -59 -168 -161h327zM915 227h-382c4 -121 76 -189 185 -189c60 0 121 18 174 49v-56c-53 -28 -114 -43 -175 -43
c-102 0 -176 51 -209 136c-35 -84 -112 -136 -212 -136c-142 0 -242 100 -242 249s100 250 242 250c99 0 176 -52 211 -135c31 83 98 135 196 135c147 0 212 -115 212 -228v-32z" />
    <glyph glyph-name="racute" unicode="&#x155;" horiz-adv-x="357" 
d="M91 475h47l4 -75c42 47 112 87 183 87v-55c-72 0 -132 -35 -183 -88v-344h-51v475zM164 559l84 151h62l-100 -151h-46z" />
    <glyph glyph-name="rcaron" unicode="&#x159;" horiz-adv-x="357" 
d="M91 475h47l4 -75c42 47 112 87 183 87v-55c-72 0 -132 -35 -183 -88v-344h-51v475zM231 559h-40l-100 151h46l74 -99l74 99h46z" />
    <glyph glyph-name="rcommaaccent" unicode="&#x157;" horiz-adv-x="357" 
d="M91 475h47l4 -75c42 47 112 87 183 87v-55c-72 0 -132 -35 -183 -88v-344h-51v475zM88 -61h48c6 -18 8 -33 8 -48c0 -53 -24 -96 -81 -128l-21 37c40 24 54 53 54 89c0 14 -1 29 -8 50z" />
    <glyph glyph-name="sacute" unicode="&#x15b;" horiz-adv-x="464" 
d="M397 453v-56c-37 24 -99 40 -155 40c-68 0 -133 -24 -133 -85c0 -128 299 -40 299 -225c0 -94 -79 -139 -181 -139c-64 0 -121 15 -169 44v55c50 -31 106 -49 169 -49c79 0 128 26 128 86c0 137 -298 44 -298 225c0 91 82 138 186 138c53 0 122 -15 154 -34zM198 559
l84 151h62l-100 -151h-46z" />
    <glyph glyph-name="scircumflex" unicode="&#x15d;" horiz-adv-x="464" 
d="M397 453v-56c-37 24 -99 40 -155 40c-68 0 -133 -24 -133 -85c0 -128 299 -40 299 -225c0 -94 -79 -139 -181 -139c-64 0 -121 15 -169 44v55c50 -31 106 -49 169 -49c79 0 128 26 128 86c0 137 -298 44 -298 225c0 91 82 138 186 138c53 0 122 -15 154 -34zM212 710h40
l100 -151h-46l-74 99l-74 -99h-46z" />
    <glyph glyph-name="scaron" unicode="&#x161;" horiz-adv-x="464" 
d="M397 453v-56c-37 24 -99 40 -155 40c-68 0 -133 -24 -133 -85c0 -128 299 -40 299 -225c0 -94 -79 -139 -181 -139c-64 0 -121 15 -169 44v55c50 -31 106 -49 169 -49c79 0 128 26 128 86c0 137 -298 44 -298 225c0 91 82 138 186 138c53 0 122 -15 154 -34zM252 559h-40
l-100 151h46l74 -99l74 99h46z" />
    <glyph glyph-name="scommaaccent" unicode="&#x219;" horiz-adv-x="464" 
d="M397 453v-56c-37 24 -99 40 -155 40c-68 0 -133 -24 -133 -85c0 -128 299 -40 299 -225c0 -94 -79 -139 -181 -139c-64 0 -121 15 -169 44v55c50 -31 106 -49 169 -49c79 0 128 26 128 86c0 137 -298 44 -298 225c0 91 82 138 186 138c53 0 122 -15 154 -34zM201 -61h48
c6 -18 8 -33 8 -48c0 -53 -24 -96 -81 -128l-21 37c40 24 54 53 54 89c0 14 -1 29 -8 50z" />
    <glyph glyph-name="scedilla" unicode="&#x15f;" horiz-adv-x="464" 
d="M397 453v-56c-37 24 -99 40 -155 40c-68 0 -133 -24 -133 -85c0 -128 299 -40 299 -225c0 -84 -62 -128 -147 -137l-12 -42c55 0 80 -30 80 -75c0 -44 -34 -75 -89 -75c-20 0 -42 5 -57 12v46c10 -6 35 -14 58 -14s42 8 42 32c0 28 -21 32 -47 32h-40l22 82
c-60 2 -114 16 -160 44v55c50 -31 106 -49 169 -49c79 0 128 26 128 86c0 137 -298 44 -298 225c0 91 82 138 186 138c53 0 122 -15 154 -34z" />
    <glyph glyph-name="germandbls" unicode="&#xdf;" horiz-adv-x="532" 
d="M91 0v548c0 113 79 174 178 174c121 0 176 -77 176 -155c0 -115 -97 -145 -97 -213c0 -100 162 -89 162 -232c0 -84 -62 -134 -156 -134c-50 0 -103 17 -128 34v55c34 -21 77 -39 129 -39c65 0 105 27 105 82c0 111 -163 92 -163 232c0 95 97 113 97 213
c0 59 -36 107 -125 107c-69 0 -127 -39 -127 -121v-551h-51z" />
    <glyph glyph-name="tcaron" unicode="&#x165;" horiz-adv-x="327" 
d="M232 722h50c5 -19 6 -37 6 -55c0 -59 -23 -104 -71 -142l-26 31c34 27 50 64 50 107c0 18 -3 38 -9 59zM297 475v-48h-151v-303c0 -68 33 -86 78 -86c27 0 56 9 82 25v-53c-25 -14 -56 -22 -88 -22c-68 0 -123 39 -123 137v302h-70v48h70l8 151h43v-151h151z" />
    <glyph glyph-name="tbar" unicode="&#x167;" horiz-adv-x="327" 
d="M297 475v-48h-151v-143h134v-45h-134v-115c0 -68 33 -86 78 -86c27 0 56 9 82 25v-53c-25 -14 -56 -22 -88 -22c-68 0 -123 39 -123 137v114h-70v45h70v143h-70v48h70l8 151h43v-151h151z" />
    <glyph glyph-name="tcommaaccent" unicode="&#x163;" horiz-adv-x="327" 
d="M297 475v-48h-151v-303c0 -68 33 -86 78 -86c27 0 56 9 82 25v-53c-25 -14 -56 -22 -88 -22c-68 0 -123 39 -123 137v302h-70v48h70l8 151h43v-151h151zM184 -61h48c6 -18 8 -33 8 -48c0 -53 -24 -96 -81 -128l-21 37c40 24 54 53 54 89c0 14 -1 29 -8 50z" />
    <glyph glyph-name="ugrave" unicode="&#xf9;" horiz-adv-x="548" 
d="M81 475h51v-294c0 -103 46 -143 125 -143c61 0 109 31 149 81v356h51v-475h-48l-3 57c-40 -39 -86 -69 -155 -69c-101 0 -170 59 -170 189v298zM215 710l84 -151h-46l-100 151h62z" />
    <glyph glyph-name="uacute" unicode="&#xfa;" horiz-adv-x="548" 
d="M81 475h51v-294c0 -103 46 -143 125 -143c61 0 109 31 149 81v356h51v-475h-48l-3 57c-40 -39 -86 -69 -155 -69c-101 0 -170 59 -170 189v298zM243 559l84 151h62l-100 -151h-46z" />
    <glyph glyph-name="uhungarumlaut" unicode="&#x171;" horiz-adv-x="548" 
d="M81 475h51v-294c0 -103 46 -143 125 -143c61 0 109 31 149 81v356h51v-475h-48l-3 57c-40 -39 -86 -69 -155 -69c-101 0 -170 59 -170 189v298zM323 710l-96 -151h-45l82 151h59zM464 710l-124 -151h-46l108 151h62z" />
    <glyph glyph-name="ucircumflex" unicode="&#xfb;" horiz-adv-x="548" 
d="M81 475h51v-294c0 -103 46 -143 125 -143c61 0 109 31 149 81v356h51v-475h-48l-3 57c-40 -39 -86 -69 -155 -69c-101 0 -170 59 -170 189v298zM249 710h40l100 -151h-46l-74 99l-74 -99h-46z" />
    <glyph glyph-name="ubreve" unicode="&#x16d;" horiz-adv-x="548" 
d="M81 475h51v-294c0 -103 46 -143 125 -143c61 0 109 31 149 81v356h51v-475h-48l-3 57c-40 -39 -86 -69 -155 -69c-101 0 -170 59 -170 189v298zM134 703h43c7 -54 36 -90 92 -90s85 36 92 90h43c-6 -80 -53 -137 -135 -137s-129 57 -135 137z" />
    <glyph glyph-name="utilde" unicode="&#x169;" horiz-adv-x="548" 
d="M81 475h51v-294c0 -103 46 -143 125 -143c61 0 109 31 149 81v356h51v-475h-48l-3 57c-40 -39 -86 -69 -155 -69c-101 0 -170 59 -170 189v298zM363 688h43c0 -60 -22 -110 -77 -110c-52 0 -83 65 -125 65c-26 0 -30 -34 -30 -63h-43c0 60 22 110 77 110
c51 0 93 -65 125 -65c26 0 30 34 30 63z" />
    <glyph glyph-name="umacron" unicode="&#x16b;" horiz-adv-x="548" 
d="M81 475h51v-294c0 -103 46 -143 125 -143c61 0 109 31 149 81v356h51v-475h-48l-3 57c-40 -39 -86 -69 -155 -69c-101 0 -170 59 -170 189v298zM388 657v-45h-238v45h238z" />
    <glyph glyph-name="udieresis" unicode="&#xfc;" horiz-adv-x="548" 
d="M81 475h51v-294c0 -103 46 -143 125 -143c61 0 109 31 149 81v356h51v-475h-48l-3 57c-40 -39 -86 -69 -155 -69c-101 0 -170 59 -170 189v298zM210 680v-83h-51v83h51zM379 680v-83h-51v83h51z" />
    <glyph glyph-name="uogonek" unicode="&#x173;" horiz-adv-x="548" 
d="M409 0l-3 57c-40 -39 -86 -69 -155 -69c-101 0 -170 59 -170 189v298h51v-294c0 -103 46 -143 125 -143c61 0 109 31 149 81v356h51v-475c-34 -30 -67 -61 -67 -110c0 -31 20 -47 48 -47c22 0 44 8 61 21v-48c-17 -10 -37 -18 -67 -18c-53 0 -87 34 -87 90
c0 47 26 86 64 112z" />
    <glyph glyph-name="uring" unicode="&#x16f;" horiz-adv-x="548" 
d="M81 475h51v-294c0 -103 46 -143 125 -143c61 0 109 31 149 81v356h51v-475h-48l-3 57c-40 -39 -86 -69 -155 -69c-101 0 -170 59 -170 189v298zM370 634c0 -59 -49 -90 -101 -90s-101 31 -101 90c0 57 49 88 101 88s101 -31 101 -88zM328 633c0 33 -24 51 -59 51
s-60 -18 -60 -51s25 -51 60 -51s59 18 59 51z" />
    <glyph glyph-name="wgrave" unicode="&#x1e81;" horiz-adv-x="763" 
d="M13 475h53l134 -415l155 415h53l156 -415l133 415h54l-157 -475h-56l-156 412l-157 -412h-56zM320 710l84 -151h-46l-100 151h62z" />
    <glyph glyph-name="wacute" unicode="&#x1e83;" horiz-adv-x="763" 
d="M13 475h53l134 -415l155 415h53l156 -415l133 415h54l-157 -475h-56l-156 412l-157 -412h-56zM360 559l84 151h62l-100 -151h-46z" />
    <glyph glyph-name="wcircumflex" unicode="&#x175;" horiz-adv-x="763" 
d="M13 475h53l134 -415l155 415h53l156 -415l133 415h54l-157 -475h-56l-156 412l-157 -412h-56zM362 710h40l100 -151h-46l-74 99l-74 -99h-46z" />
    <glyph glyph-name="wdieresis" unicode="&#x1e85;" horiz-adv-x="763" 
d="M13 475h53l134 -415l155 415h53l156 -415l133 415h54l-157 -475h-56l-156 412l-157 -412h-56zM323 680v-83h-51v83h51zM492 680v-83h-51v83h51z" />
    <glyph glyph-name="ygrave" unicode="&#x1ef3;" horiz-adv-x="548" 
d="M105 -167v57c37 -21 85 -42 153 -42c82 0 148 45 148 157v53c-40 -40 -88 -70 -155 -70c-101 0 -170 59 -170 189v298h51v-294c0 -103 46 -143 125 -143c61 0 109 31 149 81v356h51v-467c0 -137 -84 -210 -199 -210c-68 0 -117 16 -153 35zM215 710l84 -151h-46l-100 151
h62z" />
    <glyph glyph-name="yacute" unicode="&#xfd;" horiz-adv-x="548" 
d="M105 -167v57c37 -21 85 -42 153 -42c82 0 148 45 148 157v53c-40 -40 -88 -70 -155 -70c-101 0 -170 59 -170 189v298h51v-294c0 -103 46 -143 125 -143c61 0 109 31 149 81v356h51v-467c0 -137 -84 -210 -199 -210c-68 0 -117 16 -153 35zM243 559l84 151h62l-100 -151
h-46z" />
    <glyph glyph-name="ycircumflex" unicode="&#x177;" horiz-adv-x="548" 
d="M105 -167v57c37 -21 85 -42 153 -42c82 0 148 45 148 157v53c-40 -40 -88 -70 -155 -70c-101 0 -170 59 -170 189v298h51v-294c0 -103 46 -143 125 -143c61 0 109 31 149 81v356h51v-467c0 -137 -84 -210 -199 -210c-68 0 -117 16 -153 35zM249 710h40l100 -151h-46
l-74 99l-74 -99h-46z" />
    <glyph glyph-name="ydieresis" unicode="&#xff;" horiz-adv-x="548" 
d="M105 -167v57c37 -21 85 -42 153 -42c82 0 148 45 148 157v53c-40 -40 -88 -70 -155 -70c-101 0 -170 59 -170 189v298h51v-294c0 -103 46 -143 125 -143c61 0 109 31 149 81v356h51v-467c0 -137 -84 -210 -199 -210c-68 0 -117 16 -153 35zM210 680v-83h-51v83h51z
M379 680v-83h-51v83h51z" />
    <glyph glyph-name="zacute" unicode="&#x17a;" horiz-adv-x="456" 
d="M405 475v-38l-295 -390h301v-47h-365v38l292 390h-285v47h352zM204 559l84 151h62l-100 -151h-46z" />
    <glyph glyph-name="zcaron" unicode="&#x17e;" horiz-adv-x="456" 
d="M405 475v-38l-295 -390h301v-47h-365v38l292 390h-285v47h352zM252 559h-40l-100 151h46l74 -99l74 99h46z" />
    <glyph glyph-name="zdotaccent" unicode="&#x17c;" horiz-adv-x="456" 
d="M405 475v-38l-295 -390h301v-47h-365v38l292 390h-285v47h352zM202 680h51v-83h-51v83z" />
    <glyph glyph-name="eng" unicode="&#x14b;" horiz-adv-x="565" 
d="M91 475h47l4 -46c42 33 93 58 161 58c100 0 178 -61 178 -175v-410c0 -76 -42 -104 -96 -104c-21 0 -42 5 -61 14v52c16 -9 37 -16 56 -16c27 0 50 14 50 54v407c0 87 -56 128 -131 128c-57 0 -114 -24 -157 -63v-374h-51v475z" />
    <glyph glyph-name="eth" unicode="&#xf0;" horiz-adv-x="589" 
d="M535 279c0 -178 -78 -291 -239 -291c-141 0 -242 100 -242 249s101 250 242 250c79 0 139 -30 182 -86c-12 67 -43 143 -69 197l-225 -39v46l204 35s-31 57 -40 70h49c13 -20 25 -41 36 -62l119 21v-46l-97 -17c45 -89 80 -211 80 -327zM484 240c0 132 -76 197 -188 197
s-190 -73 -190 -200s78 -199 190 -199s188 75 188 202z" />
    <glyph glyph-name="thorn" unicode="&#xfe;" horiz-adv-x="560" 
d="M91 710h49v-281c31 23 81 58 158 58c113 0 208 -84 208 -247c0 -168 -102 -252 -226 -252c-45 0 -97 12 -140 39v-217h-49v900zM140 374v-295c41 -28 92 -41 138 -41c93 0 175 59 175 202c0 137 -74 197 -158 197c-60 0 -118 -30 -155 -63z" />
    <glyph glyph-name="longs" unicode="&#x17f;" horiz-adv-x="305" 
d="M30 475h69v91c0 106 68 156 143 156c23 0 42 -3 61 -10v-52c-19 9 -41 12 -61 12c-50 0 -92 -30 -92 -106v-566h-51v427h-69v48z" />
    <glyph glyph-name="at" unicode="@" horiz-adv-x="780" 
d="M514 371v-144c0 -67 23 -89 69 -89c54 0 100 46 100 152c0 165 -138 239 -278 239c-154 0 -306 -89 -306 -281c0 -215 150 -289 307 -289c64 0 129 9 186 27v-45c-57 -19 -122 -27 -185 -27c-179 0 -353 89 -353 334c0 216 177 330 351 330c165 0 322 -96 322 -288
c0 -107 -47 -200 -146 -200c-42 0 -83 11 -102 58c-29 -43 -71 -59 -113 -59c-70 0 -126 56 -126 150c0 112 74 159 158 159c44 0 81 -10 116 -27zM467 211v128c-21 10 -45 12 -70 12c-60 0 -111 -28 -111 -112c0 -65 31 -102 85 -102c48 0 81 34 96 74z" />
    <glyph glyph-name="numbersign" unicode="#" horiz-adv-x="573" 
d="M482 676l-34 -189h103l-8 -43h-103l-36 -203h102l-8 -43h-102l-36 -198h-45l36 198h-184l-35 -198h-45l35 198h-102l8 43h102l37 204h-102l8 42h101l34 189h45l-34 -189h184l34 189h45zM395 445h-183l-37 -204h184z" />
    <glyph glyph-name="period" unicode="." horiz-adv-x="246" 
d="M89 0v67h68v-67h-68z" />
    <glyph glyph-name="comma" unicode="," horiz-adv-x="246" 
d="M98 67h56c7 -24 10 -49 10 -71c0 -81 -38 -139 -118 -184l-25 39c63 38 89 84 89 145c0 22 -5 46 -12 71z" />
    <glyph glyph-name="colon" unicode=":" horiz-adv-x="246" 
d="M89 0v67h68v-67h-68zM89 408v67h68v-67h-68z" />
    <glyph glyph-name="semicolon" unicode=";" horiz-adv-x="246" 
d="M89 408v67h68v-67h-68zM98 67h56c7 -24 10 -49 10 -71c0 -81 -38 -139 -118 -184l-25 39c63 38 89 84 89 145c0 22 -5 46 -12 71z" />
    <glyph glyph-name="ellipsis" unicode="&#x2026;" horiz-adv-x="692" 
d="M89 0v67h68v-67h-68zM312 0v67h68v-67h-68zM535 0v67h68v-67h-68z" />
    <glyph glyph-name="periodcentered" unicode="&#xb7;" horiz-adv-x="246" 
d="M89 258v67h68v-67h-68z" />
    <glyph glyph-name="bullet" unicode="&#x2022;" horiz-adv-x="293" 
d="M223 322c0 -51 -32 -78 -77 -78s-76 27 -76 78s31 81 76 81s77 -30 77 -81z" />
    <glyph glyph-name="hyphen" unicode="-" horiz-adv-x="389" 
d="M309 319v-54h-228v54h228z" />
    <glyph glyph-name="endash" unicode="&#x2013;" horiz-adv-x="590" 
d="M509 319v-54h-428v54h428z" />
    <glyph glyph-name="emdash" unicode="&#x2014;" horiz-adv-x="1017" 
d="M937 319v-53h-856v53h856z" />
    <glyph glyph-name="underscore" unicode="_" horiz-adv-x="573" 
d="M552 -12v-48h-531v48h531z" />
    <glyph glyph-name="parenleft" unicode="(" horiz-adv-x="268" 
d="M205 710h46c-65 -118 -140 -262 -140 -450s75 -331 140 -449h-46c-73 116 -141 250 -141 449s68 334 141 450z" />
    <glyph glyph-name="parenright" unicode=")" horiz-adv-x="268" 
d="M17 710h46c73 -116 141 -251 141 -450s-68 -333 -141 -449h-46c65 118 140 261 140 449s-75 332 -140 450z" />
    <glyph glyph-name="bracketleft" unicode="[" horiz-adv-x="292" 
d="M271 710v-48h-109v-804h109v-48h-156v900h156z" />
    <glyph glyph-name="bracketright" unicode="]" horiz-adv-x="292" 
d="M21 662v48h156v-900h-156v48h109v804h-109z" />
    <glyph glyph-name="braceleft" unicode="{" horiz-adv-x="317" 
d="M21 236v48c87 22 113 48 113 156v122c0 89 41 148 140 148h22v-47h-22c-60 0 -92 -33 -92 -101v-123c0 -106 -31 -161 -108 -179c77 -18 108 -73 108 -179v-123c0 -68 32 -101 92 -101h22v-47h-22c-99 0 -140 59 -140 148v122c0 108 -26 134 -113 156z" />
    <glyph glyph-name="braceright" unicode="}" horiz-adv-x="317" 
d="M296 284v-48c-87 -22 -113 -48 -113 -156v-122c0 -89 -41 -148 -140 -148h-22v47h22c60 0 92 33 92 101v123c0 106 31 161 108 179c-77 18 -108 73 -108 179v123c0 68 -32 101 -92 101h-22v47h22c99 0 140 -59 140 -148v-122c0 -108 26 -134 113 -156z" />
    <glyph glyph-name="exclam" unicode="!" horiz-adv-x="280" 
d="M106 0v67h68v-67h-68zM109 676h62l-9 -495h-45z" />
    <glyph glyph-name="exclamdown" unicode="&#xa1;" horiz-adv-x="280" 
d="M105 408v67h68v-67h-68zM116 305h45l9 -495h-62z" />
    <glyph glyph-name="question" unicode="?" horiz-adv-x="405" 
d="M68 606v54c29 18 76 28 119 28c88 0 164 -44 164 -144c0 -83 -48 -133 -88 -176c-49 -52 -64 -68 -64 -119v-68h-51v69c0 80 30 103 78 157c32 36 69 77 69 134c0 77 -52 97 -111 97c-43 0 -86 -13 -116 -32zM139 0v67h68v-67h-68z" />
    <glyph glyph-name="questiondown" unicode="&#xbf;" horiz-adv-x="309" 
d="M218 475v-67h-68v67h68zM289 -120v-54c-29 -18 -77 -28 -119 -28c-88 0 -164 44 -164 144c0 83 48 133 88 176c49 52 64 68 64 119v68h51v-69c0 -80 -30 -103 -78 -157c-32 -36 -69 -77 -69 -134c0 -77 52 -97 111 -97c43 0 86 13 116 32z" />
    <glyph glyph-name="quotesingle" unicode="'" horiz-adv-x="246" 
d="M98 676h50l-4 -239h-43z" />
    <glyph glyph-name="quotedbl" unicode="&#x22;" horiz-adv-x="395" 
d="M98 676h50l-4 -239h-43zM247 676h50l-3 -239h-43z" />
    <glyph glyph-name="quoteleft" unicode="&#x2018;" horiz-adv-x="246" 
d="M123 437h-52c-6 20 -8 44 -8 66c0 68 28 138 98 185l23 -34c-50 -35 -72 -92 -72 -149c0 -23 4 -43 11 -68z" />
    <glyph glyph-name="quoteright" unicode="&#x2019;" horiz-adv-x="246" 
d="M123 676h52c6 -20 8 -44 8 -66c0 -68 -28 -138 -98 -185l-23 34c50 35 72 92 72 149c0 23 -4 43 -11 68z" />
    <glyph glyph-name="quotedblleft" unicode="&#x201c;" horiz-adv-x="395" 
d="M123 437h-52c-6 20 -8 44 -8 66c0 68 28 138 98 185l23 -34c-50 -35 -72 -92 -72 -149c0 -23 4 -43 11 -68zM272 437h-52c-6 20 -8 44 -8 66c0 68 28 138 98 185l23 -34c-50 -35 -72 -92 -72 -149c0 -23 4 -43 11 -68z" />
    <glyph glyph-name="quotedblright" unicode="&#x201d;" horiz-adv-x="395" 
d="M123 676h52c6 -20 8 -44 8 -66c0 -68 -28 -138 -98 -185l-23 34c50 35 72 92 72 149c0 23 -4 43 -11 68zM272 676h52c6 -20 8 -44 8 -66c0 -68 -28 -138 -98 -185l-23 34c50 35 72 92 72 149c0 23 -4 43 -11 68z" />
    <glyph glyph-name="quotesinglbase" unicode="&#x201a;" horiz-adv-x="246" 
d="M123 111h52c6 -20 8 -44 8 -66c0 -68 -28 -138 -98 -185l-23 34c50 35 72 92 72 149c0 23 -4 43 -11 68z" />
    <glyph glyph-name="quotedblbase" unicode="&#x201e;" horiz-adv-x="395" 
d="M123 111h52c6 -20 8 -44 8 -66c0 -68 -28 -138 -98 -185l-23 34c50 35 72 92 72 149c0 23 -4 43 -11 68zM272 111h52c6 -20 8 -44 8 -66c0 -68 -28 -138 -98 -185l-23 34c50 35 72 92 72 149c0 23 -4 43 -11 68z" />
    <glyph glyph-name="guilsinglleft" unicode="&#x2039;" horiz-adv-x="280" 
d="M185 49l-147 199l147 199h57l-137 -199l137 -199h-57z" />
    <glyph glyph-name="guilsinglright" unicode="&#x203a;" horiz-adv-x="280" 
d="M242 248l-147 -199h-57l137 199l-137 199h57z" />
    <glyph glyph-name="guillemotleft" unicode="&#xab;" horiz-adv-x="486" 
d="M185 49l-147 199l147 199h57l-137 -199l137 -199h-57zM391 49l-147 199l147 199h57l-137 -199l137 -199h-57z" />
    <glyph glyph-name="guillemotright" unicode="&#xbb;" horiz-adv-x="486" 
d="M242 248l-147 -199h-57l137 199l-137 199h57zM448 248l-147 -199h-57l137 199l-137 199h57z" />
    <glyph glyph-name="slash" unicode="/" horiz-adv-x="332" 
d="M332 676l-279 -676h-53l280 676h52z" />
    <glyph glyph-name="backslash" unicode="\" horiz-adv-x="332" 
d="M279 0l-279 676h52l280 -676h-53z" />
    <glyph glyph-name="A" unicode="A" horiz-adv-x="599" 
d="M273 676h58l268 -676h-58l-77 192h-331l-75 -192h-58zM299 610l-145 -368h291z" />
    <glyph glyph-name="B" unicode="B" horiz-adv-x="599" 
d="M115 676h170c165 0 243 -63 243 -172c0 -96 -71 -143 -132 -159c76 -15 149 -63 149 -160c0 -118 -97 -185 -267 -185h-163v676zM171 319v-270h109c122 0 206 43 206 134c0 82 -73 136 -203 136h-112zM171 627v-259h109c115 0 189 48 189 136c0 87 -66 123 -183 123h-115
z" />
    <glyph glyph-name="C" unicode="C" horiz-adv-x="641" 
d="M569 655v-53c-44 22 -100 36 -164 36c-172 0 -283 -116 -283 -300s113 -300 285 -300c67 0 124 16 170 42v-54c-47 -24 -100 -38 -169 -38c-211 0 -344 138 -344 350s134 350 341 350c66 0 119 -11 164 -33z" />
    <glyph glyph-name="D" unicode="D" horiz-adv-x="752" 
d="M171 627v-578h137c199 0 320 94 320 289s-121 289 -320 289h-137zM115 676h193c255 0 380 -132 380 -338s-125 -338 -380 -338h-193v676z" />
    <glyph glyph-name="E" unicode="E" horiz-adv-x="566" 
d="M106 676h379v-49h-323v-250h298v-49h-298v-173c0 -71 33 -106 107 -106h233v-49h-239c-113 0 -157 57 -157 155v521z" />
    <glyph glyph-name="F" unicode="F" horiz-adv-x="545" 
d="M115 676h370v-49h-314v-258h289v-49h-289v-320h-56v676z" />
    <glyph glyph-name="G" unicode="G" horiz-adv-x="799" 
d="M406 351h291v-278c-60 -36 -154 -85 -289 -85c-207 0 -344 139 -344 350c0 248 180 350 365 350c90 0 180 -24 252 -66v-53c-71 42 -162 69 -252 69c-157 0 -306 -81 -306 -299c0 -187 112 -301 286 -301c105 0 179 26 235 60v204h-238v49z" />
    <glyph glyph-name="H" unicode="H" horiz-adv-x="781" 
d="M115 676h56v-299h439v299h56v-676h-56v328h-439v-328h-56v676z" />
    <glyph glyph-name="I" unicode="I" horiz-adv-x="286" 
d="M115 676h56v-676h-56v676z" />
    <glyph glyph-name="J" unicode="J" horiz-adv-x="367" 
d="M207 676h56v-514c0 -116 -57 -174 -153 -174c-35 0 -68 6 -97 20v53c25 -13 66 -23 96 -23c71 0 98 41 98 126v512z" />
    <glyph glyph-name="K" unicode="K" horiz-adv-x="588" 
d="M115 676h56v-308l336 308h69l-352 -324l362 -352h-73l-342 329v-329h-56v676z" />
    <glyph glyph-name="L" unicode="L" horiz-adv-x="500" 
d="M106 676h56v-521c0 -71 33 -106 107 -106h210v-49h-216c-113 0 -157 57 -157 155v521z" />
    <glyph glyph-name="M" unicode="M" horiz-adv-x="937" 
d="M115 676h64l289 -487l289 487h65v-676h-56v589l-270 -457h-55l-270 457v-589h-56v676z" />
    <glyph glyph-name="N" unicode="N" horiz-adv-x="776" 
d="M115 676h52l442 -593v593h52v-676h-52l-442 593v-593h-52v676z" />
    <glyph glyph-name="O" unicode="O" horiz-adv-x="818" 
d="M409 688c207 0 345 -138 345 -350s-138 -350 -345 -350s-345 138 -345 350s138 350 345 350zM409 638c-176 0 -286 -116 -286 -300s110 -300 286 -300s286 116 286 300s-110 300 -286 300z" />
    <glyph glyph-name="P" unicode="P" horiz-adv-x="605" 
d="M115 676h189c159 0 246 -77 246 -204c0 -132 -92 -204 -246 -204h-133v-268h-56v676zM171 627v-310h133c118 0 188 53 188 155s-70 155 -188 155h-133z" />
    <glyph glyph-name="Q" unicode="Q" horiz-adv-x="818" 
d="M64 338c0 212 137 350 345 350c207 0 345 -138 345 -350c0 -174 -94 -299 -241 -337l128 -153h-73l-110 143c-16 -2 -32 -3 -49 -3c-208 0 -345 138 -345 350zM122 338c0 -184 111 -300 287 -300s286 116 286 300s-110 300 -286 300s-287 -116 -287 -300z" />
    <glyph glyph-name="R" unicode="R" horiz-adv-x="615" 
d="M115 676h189c159 0 246 -77 246 -204c0 -114 -68 -180 -185 -200l212 -272h-66l-208 268h-132v-268h-56v676zM171 627v-310h133c118 0 188 53 188 155s-70 155 -188 155h-133z" />
    <glyph glyph-name="S" unicode="S" horiz-adv-x="562" 
d="M479 647v-53c-45 24 -101 44 -181 44c-79 0 -162 -36 -162 -131c0 -185 364 -90 364 -327c0 -138 -113 -192 -231 -192c-69 0 -143 20 -192 51v53c51 -31 119 -54 194 -54c89 0 172 36 172 139c0 192 -364 89 -364 328c0 125 109 183 221 183c80 0 134 -16 179 -41z" />
    <glyph glyph-name="T" unicode="T" horiz-adv-x="574" 
d="M21 676h532v-49h-238v-627h-56v627h-238v49z" />
    <glyph glyph-name="U" unicode="U" horiz-adv-x="688" 
d="M98 676h56v-440c0 -129 80 -198 190 -198c111 0 191 69 191 198v440h55v-442c0 -165 -113 -246 -246 -246c-132 0 -246 81 -246 246v442z" />
    <glyph glyph-name="V" unicode="V" horiz-adv-x="598" 
d="M0 676h58l241 -610l242 610h57l-272 -676h-58z" />
    <glyph glyph-name="W" unicode="W" horiz-adv-x="974" 
d="M459 676h56l208 -610l181 610h57l-204 -676h-62l-208 606l-208 -606h-62l-204 676h57l181 -610z" />
    <glyph glyph-name="X" unicode="X" horiz-adv-x="597" 
d="M16 676h68l215 -292l216 292h66l-250 -335l253 -341h-68l-218 297l-218 -297h-67l253 340z" />
    <glyph glyph-name="Y" unicode="Y" horiz-adv-x="558" 
d="M0 676h63l217 -348l219 348h59l-252 -403v-273h-56v273z" />
    <glyph glyph-name="Z" unicode="Z" horiz-adv-x="586" 
d="M52 676h487v-47l-429 -580h438v-49h-505v46l429 581h-420v49z" />
    <glyph glyph-name="Agrave" unicode="&#xc0;" horiz-adv-x="599" 
d="M273 676h58l268 -676h-58l-77 192h-331l-75 -192h-58zM299 610l-145 -368h291zM242 895l84 -151h-46l-100 151h62z" />
    <glyph glyph-name="Aacute" unicode="&#xc1;" horiz-adv-x="599" 
d="M273 676h58l268 -676h-58l-77 192h-331l-75 -192h-58zM299 610l-145 -368h291zM280 744l84 151h62l-100 -151h-46z" />
    <glyph glyph-name="Acircumflex" unicode="&#xc2;" horiz-adv-x="599" 
d="M273 676h58l268 -676h-58l-77 192h-331l-75 -192h-58zM299 610l-145 -368h291zM279 895h40l100 -151h-46l-74 99l-74 -99h-46z" />
    <glyph glyph-name="Abreve" unicode="&#x102;" horiz-adv-x="599" 
d="M273 676h58l268 -676h-58l-77 192h-331l-75 -192h-58zM299 610l-145 -368h291zM164 889h43c7 -54 36 -90 92 -90s85 36 92 90h43c-6 -80 -53 -137 -135 -137s-129 57 -135 137z" />
    <glyph glyph-name="Atilde" unicode="&#xc3;" horiz-adv-x="599" 
d="M273 676h58l268 -676h-58l-77 192h-331l-75 -192h-58zM299 610l-145 -368h291zM394 872h43c0 -60 -22 -110 -77 -110c-52 0 -83 65 -125 65c-26 0 -30 -34 -30 -63h-43c0 60 22 110 77 110c51 0 93 -65 125 -65c26 0 30 34 30 63z" />
    <glyph glyph-name="Amacron" unicode="&#x100;" horiz-adv-x="599" 
d="M273 676h58l268 -676h-58l-77 192h-331l-75 -192h-58zM299 610l-145 -368h291zM418 841v-45h-238v45h238z" />
    <glyph glyph-name="Adieresis" unicode="&#xc4;" horiz-adv-x="599" 
d="M273 676h58l268 -676h-58l-77 192h-331l-75 -192h-58zM299 610l-145 -368h291zM240 860v-83h-51v83h51zM409 860v-83h-51v83h51z" />
    <glyph glyph-name="Aogonek" unicode="&#x104;" horiz-adv-x="599" 
d="M548 0h-7l-77 192h-331l-75 -192h-58l273 676h58l268 -676c-34 -30 -67 -61 -67 -110c0 -31 20 -47 48 -47c22 0 44 8 61 21v-48c-17 -10 -38 -18 -67 -18c-53 0 -87 34 -87 90c0 47 24 86 61 112zM299 610l-145 -368h291z" />
    <glyph glyph-name="Aring" unicode="&#xc5;" horiz-adv-x="599" 
d="M273 676h58l268 -676h-58l-77 192h-331l-75 -192h-58zM299 610l-145 -368h291zM400 820c0 -59 -49 -90 -101 -90s-101 31 -101 90c0 57 49 88 101 88s101 -31 101 -88zM358 819c0 33 -24 51 -59 51s-60 -18 -60 -51s25 -51 60 -51s59 18 59 51z" />
    <glyph glyph-name="Aringacute" unicode="&#x1fa;" horiz-adv-x="599" 
d="M400 820c0 -59 -49 -90 -101 -90s-101 31 -101 90c0 49 37 79 81 86l73 134h62l-94 -134c44 -8 80 -37 80 -86zM359 819c0 33 -25 51 -60 51s-59 -18 -59 -51s24 -51 59 -51s60 18 60 51zM273 676h58l268 -676h-58l-77 192h-331l-75 -192h-58zM299 610l-145 -368h291z
" />
    <glyph glyph-name="AE" unicode="&#xc6;" horiz-adv-x="868" 
d="M-29 0l407 676h409v-49h-323v-250h298v-49h-298v-173c0 -71 32 -106 107 -106h233v-49h-239c-114 0 -157 57 -157 155v37h-261l-115 -192h-61zM177 242h231v385z" />
    <glyph glyph-name="AEacute" unicode="&#x1fc;" horiz-adv-x="868" 
d="M-29 0l407 676h409v-49h-323v-250h298v-49h-298v-173c0 -71 32 -106 107 -106h233v-49h-239c-114 0 -157 57 -157 155v37h-261l-115 -192h-61zM177 242h231v385zM418 744l84 151h62l-100 -151h-46z" />
    <glyph glyph-name="Cacute" unicode="&#x106;" horiz-adv-x="641" 
d="M569 655v-53c-44 22 -100 36 -164 36c-172 0 -283 -116 -283 -300s113 -300 285 -300c67 0 124 16 170 42v-54c-47 -24 -100 -38 -169 -38c-211 0 -344 138 -344 350s134 350 341 350c66 0 119 -11 164 -33zM315 744l84 151h62l-100 -151h-46z" />
    <glyph glyph-name="Ccircumflex" unicode="&#x108;" horiz-adv-x="641" 
d="M569 655v-53c-44 22 -100 36 -164 36c-172 0 -283 -116 -283 -300s113 -300 285 -300c67 0 124 16 170 42v-54c-47 -24 -100 -38 -169 -38c-211 0 -344 138 -344 350s134 350 341 350c66 0 119 -11 164 -33zM325 895h40l100 -151h-46l-74 99l-74 -99h-46z" />
    <glyph glyph-name="Ccaron" unicode="&#x10c;" horiz-adv-x="641" 
d="M569 655v-53c-44 22 -100 36 -164 36c-172 0 -283 -116 -283 -300s113 -300 285 -300c67 0 124 16 170 42v-54c-47 -24 -100 -38 -169 -38c-211 0 -344 138 -344 350s134 350 341 350c66 0 119 -11 164 -33zM365 744h-40l-100 151h46l74 -99l74 99h46z" />
    <glyph glyph-name="Cdotaccent" unicode="&#x10a;" horiz-adv-x="641" 
d="M569 655v-53c-44 22 -100 36 -164 36c-172 0 -283 -116 -283 -300s113 -300 285 -300c67 0 124 16 170 42v-54c-47 -24 -100 -38 -169 -38c-211 0 -344 138 -344 350s134 350 341 350c66 0 119 -11 164 -33zM319 861h51v-83h-51v83z" />
    <glyph glyph-name="Ccedilla" unicode="&#xc7;" horiz-adv-x="641" 
d="M569 655v-53c-44 22 -100 36 -164 36c-172 0 -283 -116 -283 -300s113 -300 285 -300c67 0 124 16 170 42v-54c-47 -24 -100 -38 -169 -38c-17 0 -34 1 -50 3l-12 -43c55 0 80 -30 80 -75c0 -44 -34 -75 -89 -75c-20 0 -42 5 -57 12v46c10 -6 35 -14 58 -14s42 8 42 32
c0 28 -21 32 -47 32h-40l25 91c-158 34 -254 161 -254 341c0 212 134 350 341 350c66 0 119 -11 164 -33z" />
    <glyph glyph-name="Dcaron" unicode="&#x10e;" horiz-adv-x="752" 
d="M171 627v-578h137c199 0 320 94 320 289s-121 289 -320 289h-137zM115 676h193c255 0 380 -132 380 -338s-125 -338 -380 -338h-193v676zM396 744h-40l-100 151h46l74 -99l74 99h46z" />
    <glyph glyph-name="Dcroat" unicode="&#x110;" horiz-adv-x="752" 
d="M115 676h193c255 0 380 -132 380 -338s-125 -338 -380 -338h-193v327h-84v50h84v299zM171 627v-250h224v-50h-224v-278h137c199 0 320 94 320 289s-121 289 -320 289h-137z" />
    <glyph glyph-name="Egrave" unicode="&#xc8;" horiz-adv-x="566" 
d="M106 676h379v-49h-323v-250h298v-49h-298v-173c0 -71 33 -106 107 -106h233v-49h-239c-113 0 -157 57 -157 155v521zM235 895l84 -151h-46l-100 151h62z" />
    <glyph glyph-name="Eacute" unicode="&#xc9;" horiz-adv-x="566" 
d="M106 676h379v-49h-323v-250h298v-49h-298v-173c0 -71 33 -106 107 -106h233v-49h-239c-113 0 -157 57 -157 155v521zM267 744l84 151h62l-100 -151h-46z" />
    <glyph glyph-name="Ecircumflex" unicode="&#xca;" horiz-adv-x="566" 
d="M106 676h379v-49h-323v-250h298v-49h-298v-173c0 -71 33 -106 107 -106h233v-49h-239c-113 0 -157 57 -157 155v521zM275 895h40l100 -151h-46l-74 99l-74 -99h-46z" />
    <glyph glyph-name="Ecaron" unicode="&#x11a;" horiz-adv-x="566" 
d="M106 676h379v-49h-323v-250h298v-49h-298v-173c0 -71 33 -106 107 -106h233v-49h-239c-113 0 -157 57 -157 155v521zM315 744h-40l-100 151h46l74 -99l74 99h46z" />
    <glyph glyph-name="Ebreve" unicode="&#x114;" horiz-adv-x="566" 
d="M106 676h379v-49h-323v-250h298v-49h-298v-173c0 -71 33 -106 107 -106h233v-49h-239c-113 0 -157 57 -157 155v521zM160 888h43c7 -54 36 -90 92 -90s85 36 92 90h43c-6 -80 -53 -137 -135 -137s-129 57 -135 137z" />
    <glyph glyph-name="Emacron" unicode="&#x112;" horiz-adv-x="566" 
d="M106 676h379v-49h-323v-250h298v-49h-298v-173c0 -71 33 -106 107 -106h233v-49h-239c-113 0 -157 57 -157 155v521zM414 841v-45h-238v45h238z" />
    <glyph glyph-name="Edotaccent" unicode="&#x116;" horiz-adv-x="566" 
d="M106 676h379v-49h-323v-250h298v-49h-298v-173c0 -71 33 -106 107 -106h233v-49h-239c-113 0 -157 57 -157 155v521zM269 861h51v-83h-51v83z" />
    <glyph glyph-name="Edieresis" unicode="&#xcb;" horiz-adv-x="566" 
d="M106 676h379v-49h-323v-250h298v-49h-298v-173c0 -71 33 -106 107 -106h233v-49h-239c-113 0 -157 57 -157 155v521zM236 861v-83h-51v83h51zM405 861v-83h-51v83h51z" />
    <glyph glyph-name="Eogonek" unicode="&#x118;" horiz-adv-x="566" 
d="M410 0h-147c-113 0 -157 57 -157 155v521h379v-49h-323v-250h298v-49h-298v-173c0 -71 33 -106 107 -106h233v-49h-41c-34 -30 -67 -61 -67 -110c0 -31 19 -47 47 -47c22 0 44 8 61 21v-48c-17 -10 -37 -18 -67 -18c-53 0 -87 34 -87 90c0 47 24 86 62 112z" />
    <glyph glyph-name="Gbreve" unicode="&#x11e;" horiz-adv-x="799" 
d="M406 351h291v-278c-60 -36 -154 -85 -289 -85c-207 0 -344 139 -344 350c0 248 180 350 365 350c90 0 180 -24 252 -66v-53c-71 42 -162 69 -252 69c-157 0 -306 -81 -306 -299c0 -187 112 -301 286 -301c105 0 179 26 235 60v204h-238v49zM264 888h43
c7 -54 36 -90 92 -90s85 36 92 90h43c-6 -80 -53 -137 -135 -137s-129 57 -135 137z" />
    <glyph glyph-name="Gcircumflex" unicode="&#x11c;" horiz-adv-x="799" 
d="M406 351h291v-278c-60 -36 -154 -85 -289 -85c-207 0 -344 139 -344 350c0 248 180 350 365 350c90 0 180 -24 252 -66v-53c-71 42 -162 69 -252 69c-157 0 -306 -81 -306 -299c0 -187 112 -301 286 -301c105 0 179 26 235 60v204h-238v49zM379 895h40l100 -151h-46
l-74 99l-74 -99h-46z" />
    <glyph glyph-name="Gdotaccent" unicode="&#x120;" horiz-adv-x="799" 
d="M406 351h291v-278c-60 -36 -154 -85 -289 -85c-207 0 -344 139 -344 350c0 248 180 350 365 350c90 0 180 -24 252 -66v-53c-71 42 -162 69 -252 69c-157 0 -306 -81 -306 -299c0 -187 112 -301 286 -301c105 0 179 26 235 60v204h-238v49zM373 860h51v-83h-51v83z" />
    <glyph glyph-name="Gcommaaccent" unicode="&#x122;" horiz-adv-x="799" 
d="M406 351h291v-278c-60 -36 -154 -85 -289 -85c-207 0 -344 139 -344 350c0 248 180 350 365 350c90 0 180 -24 252 -66v-53c-71 42 -162 69 -252 69c-157 0 -306 -81 -306 -299c0 -187 112 -301 286 -301c105 0 179 26 235 60v204h-238v49zM376 -61h48c6 -18 8 -33 8 -48
c0 -53 -24 -96 -81 -128l-21 37c40 24 54 53 54 89c0 14 -1 29 -8 50z" />
    <glyph glyph-name="Hcircumflex" unicode="&#x124;" horiz-adv-x="781" 
d="M115 676h56v-299h439v299h56v-676h-56v328h-439v-328h-56v676zM370 895h40l100 -151h-46l-74 99l-74 -99h-46z" />
    <glyph glyph-name="Hbar" unicode="&#x126;" horiz-adv-x="781" 
d="M115 676h56v-124h439v124h56v-124h85v-46h-85v-506h-56v328h-439v-328h-56v506h-84v46h84v124zM171 377h439v129h-439v-129z" />
    <glyph glyph-name="Igrave" unicode="&#xcc;" horiz-adv-x="286" 
d="M115 676h56v-676h-56v676zM83 895l84 -151h-46l-100 151h62z" />
    <glyph glyph-name="Iacute" unicode="&#xcd;" horiz-adv-x="286" 
d="M115 676h56v-676h-56v676zM119 744l84 151h62l-100 -151h-46z" />
    <glyph glyph-name="Icircumflex" unicode="&#xce;" horiz-adv-x="286" 
d="M115 676h56v-676h-56v676zM123 895h40l100 -151h-46l-74 99l-74 -99h-46z" />
    <glyph glyph-name="Ibreve" unicode="&#x12c;" horiz-adv-x="286" 
d="M115 676h56v-676h-56v676zM8 888h43c7 -54 36 -90 92 -90s85 36 92 90h43c-6 -80 -53 -137 -135 -137s-129 57 -135 137z" />
    <glyph glyph-name="Itilde" unicode="&#x128;" horiz-adv-x="286" 
d="M115 676h56v-676h-56v676zM238 873h43c0 -60 -22 -110 -77 -110c-52 0 -83 65 -125 65c-26 0 -30 -34 -30 -63h-43c0 60 22 110 77 110c51 0 93 -65 125 -65c26 0 30 34 30 63z" />
    <glyph glyph-name="Imacron" unicode="&#x12a;" horiz-adv-x="286" 
d="M115 676h56v-676h-56v676zM262 842v-45h-238v45h238z" />
    <glyph glyph-name="Idotaccent" unicode="&#x130;" horiz-adv-x="286" 
d="M115 676h56v-676h-56v676zM117 861h51v-83h-51v83z" />
    <glyph glyph-name="Idieresis" unicode="&#xcf;" horiz-adv-x="286" 
d="M115 676h56v-676h-56v676zM84 861v-83h-51v83h51zM253 861v-83h-51v83h51z" />
    <glyph glyph-name="Iogonek" unicode="&#x12e;" horiz-adv-x="286" 
d="M120 0h-5v676h56v-676c-34 -30 -67 -61 -67 -110c0 -31 20 -47 48 -47c22 0 44 8 61 21v-48c-17 -10 -38 -18 -67 -18c-53 0 -87 34 -87 90c0 47 24 86 61 112z" />
    <glyph glyph-name="Jcircumflex" unicode="&#x134;" horiz-adv-x="367" 
d="M207 676h56v-514c0 -116 -57 -174 -153 -174c-35 0 -68 6 -97 20v53c25 -13 66 -23 96 -23c71 0 98 41 98 126v512zM216 895h40l100 -151h-46l-74 99l-74 -99h-46z" />
    <glyph glyph-name="Kcommaaccent" unicode="&#x136;" horiz-adv-x="588" 
d="M115 676h56v-308l336 308h69l-352 -324l362 -352h-73l-342 329v-329h-56v676zM319 -61h48c6 -18 8 -33 8 -48c0 -53 -24 -96 -81 -128l-21 37c40 24 54 53 54 89c0 14 -1 29 -8 50z" />
    <glyph glyph-name="Lacute" unicode="&#x139;" horiz-adv-x="500" 
d="M106 676h56v-521c0 -71 33 -106 107 -106h210v-49h-216c-113 0 -157 57 -157 155v521zM113 744l84 151h62l-100 -151h-46z" />
    <glyph glyph-name="Lcaron" unicode="&#x13d;" horiz-adv-x="500" 
d="M344 676h52c4 -19 6 -37 6 -55c0 -59 -25 -109 -73 -147l-26 36c34 27 50 64 50 107c0 18 -3 38 -9 59zM106 676h56v-521c0 -71 33 -106 107 -106h210v-49h-216c-113 0 -157 57 -157 155v521z" />
    <glyph glyph-name="Lcommaaccent" unicode="&#x13b;" horiz-adv-x="500" 
d="M106 676h56v-521c0 -71 33 -106 107 -106h210v-49h-216c-113 0 -157 57 -157 155v521zM292 -61h48c6 -18 8 -33 8 -48c0 -53 -24 -96 -81 -128l-21 37c40 24 54 53 54 89c0 14 -1 29 -8 50z" />
    <glyph glyph-name="Lslash" unicode="&#x141;" horiz-adv-x="510" 
d="M116 676h57v-305l214 89v-49l-214 -89v-167c0 -71 32 -106 107 -106h209v-49h-215c-114 0 -158 57 -158 155v144l-84 -34v49l84 34v328z" />
    <glyph glyph-name="Nacute" unicode="&#x143;" horiz-adv-x="776" 
d="M115 676h52l442 -593v593h52v-676h-52l-442 593v-593h-52v676zM356 744l84 151h62l-100 -151h-46z" />
    <glyph glyph-name="Ncaron" unicode="&#x147;" horiz-adv-x="776" 
d="M115 676h52l442 -593v593h52v-676h-52l-442 593v-593h-52v676zM408 744h-40l-100 151h46l74 -99l74 99h46z" />
    <glyph glyph-name="Ntilde" unicode="&#xd1;" horiz-adv-x="776" 
d="M115 676h52l442 -593v593h52v-676h-52l-442 593v-593h-52v676zM482 872h43c0 -60 -22 -110 -77 -110c-52 0 -83 65 -125 65c-26 0 -30 -34 -30 -63h-43c0 60 22 110 77 110c51 0 93 -65 125 -65c26 0 30 34 30 63z" />
    <glyph glyph-name="Ncommaaccent" unicode="&#x145;" horiz-adv-x="776" 
d="M115 676h52l442 -593v593h52v-676h-52l-442 593v-593h-52v676zM370 -61h48c6 -18 8 -33 8 -48c0 -53 -24 -96 -81 -128l-21 37c40 24 54 53 54 89c0 14 -1 29 -8 50z" />
    <glyph glyph-name="Ograve" unicode="&#xd2;" horiz-adv-x="818" 
d="M409 688c207 0 345 -138 345 -350s-138 -350 -345 -350s-345 138 -345 350s138 350 345 350zM409 638c-176 0 -286 -116 -286 -300s110 -300 286 -300s286 116 286 300s-110 300 -286 300zM354 895l84 -151h-46l-100 151h62z" />
    <glyph glyph-name="Oacute" unicode="&#xd3;" horiz-adv-x="818" 
d="M409 688c207 0 345 -138 345 -350s-138 -350 -345 -350s-345 138 -345 350s138 350 345 350zM409 638c-176 0 -286 -116 -286 -300s110 -300 286 -300s286 116 286 300s-110 300 -286 300zM386 744l84 151h62l-100 -151h-46z" />
    <glyph glyph-name="Ohungarumlaut" unicode="&#x150;" horiz-adv-x="818" 
d="M409 688c207 0 345 -138 345 -350s-138 -350 -345 -350s-345 138 -345 350s138 350 345 350zM409 638c-176 0 -286 -116 -286 -300s110 -300 286 -300s286 116 286 300s-110 300 -286 300zM461 895l-96 -151h-45l82 151h59zM602 895l-124 -151h-46l108 151h62z" />
    <glyph glyph-name="Ocircumflex" unicode="&#xd4;" horiz-adv-x="818" 
d="M409 688c207 0 345 -138 345 -350s-138 -350 -345 -350s-345 138 -345 350s138 350 345 350zM409 638c-176 0 -286 -116 -286 -300s110 -300 286 -300s286 116 286 300s-110 300 -286 300zM389 895h40l100 -151h-46l-74 99l-74 -99h-46z" />
    <glyph glyph-name="Obreve" unicode="&#x14e;" horiz-adv-x="818" 
d="M409 688c207 0 345 -138 345 -350s-138 -350 -345 -350s-345 138 -345 350s138 350 345 350zM409 638c-176 0 -286 -116 -286 -300s110 -300 286 -300s286 116 286 300s-110 300 -286 300zM274 888h43c7 -54 36 -90 92 -90s85 36 92 90h43c-6 -80 -53 -137 -135 -137
s-129 57 -135 137z" />
    <glyph glyph-name="Otilde" unicode="&#xd5;" horiz-adv-x="818" 
d="M409 688c207 0 345 -138 345 -350s-138 -350 -345 -350s-345 138 -345 350s138 350 345 350zM409 638c-176 0 -286 -116 -286 -300s110 -300 286 -300s286 116 286 300s-110 300 -286 300zM504 872h43c0 -60 -22 -110 -77 -110c-52 0 -83 65 -125 65
c-26 0 -30 -34 -30 -63h-43c0 60 22 110 77 110c51 0 93 -65 125 -65c26 0 30 34 30 63z" />
    <glyph glyph-name="Omacron" unicode="&#x14c;" horiz-adv-x="818" 
d="M409 688c207 0 345 -138 345 -350s-138 -350 -345 -350s-345 138 -345 350s138 350 345 350zM409 638c-176 0 -286 -116 -286 -300s110 -300 286 -300s286 116 286 300s-110 300 -286 300zM528 841v-45h-238v45h238z" />
    <glyph glyph-name="Odieresis" unicode="&#xd6;" horiz-adv-x="818" 
d="M409 688c207 0 345 -138 345 -350s-138 -350 -345 -350s-345 138 -345 350s138 350 345 350zM409 638c-176 0 -286 -116 -286 -300s110 -300 286 -300s286 116 286 300s-110 300 -286 300zM350 862v-83h-51v83h51zM519 862v-83h-51v83h51z" />
    <glyph glyph-name="Oslash" unicode="&#xd8;" horiz-adv-x="818" 
d="M754 338c0 -212 -138 -350 -345 -350c-77 0 -144 19 -198 53l-65 -83l-35 30l63 81c-70 61 -110 154 -110 269c0 212 138 350 345 350c77 0 144 -19 199 -54l68 89l35 -30l-66 -87c69 -62 109 -154 109 -268zM576 592c-45 29 -102 46 -167 46c-176 0 -286 -116 -286 -300
c0 -96 29 -174 84 -226zM612 563l-369 -480c44 -29 101 -45 166 -45c176 0 286 116 286 300c0 95 -29 173 -83 225z" />
    <glyph glyph-name="Oslashacute" unicode="&#x1fe;" horiz-adv-x="818" 
d="M754 338c0 -212 -138 -350 -345 -350c-77 0 -144 19 -198 53l-65 -83l-35 30l63 81c-70 61 -110 154 -110 269c0 212 138 350 345 350c77 0 144 -19 199 -54l68 89l35 -30l-66 -87c69 -62 109 -154 109 -268zM576 592c-45 29 -102 46 -167 46c-176 0 -286 -116 -286 -300
c0 -96 29 -174 84 -226zM612 563l-369 -480c44 -29 101 -45 166 -45c176 0 286 116 286 300c0 95 -29 173 -83 225zM386 744l84 151h62l-100 -151h-46z" />
    <glyph glyph-name="OE" unicode="&#x152;" horiz-adv-x="1155" 
d="M410 -12c-208 0 -346 138 -346 350s138 350 346 350c136 0 233 -60 285 -161v149h379v-49h-323v-250h298v-49h-298v-173c0 -71 33 -106 107 -106h233v-49h-238c-113 0 -156 54 -158 149c-52 -101 -149 -161 -285 -161zM409 38c177 0 286 116 286 300s-109 300 -286 300
c-176 0 -286 -116 -286 -300s110 -300 286 -300z" />
    <glyph glyph-name="Racute" unicode="&#x154;" horiz-adv-x="615" 
d="M115 676h189c159 0 246 -77 246 -204c0 -114 -68 -180 -185 -200l212 -272h-66l-208 268h-132v-268h-56v676zM171 627v-310h133c118 0 188 53 188 155s-70 155 -188 155h-133zM296 744l84 151h62l-100 -151h-46z" />
    <glyph glyph-name="Rcaron" unicode="&#x158;" horiz-adv-x="615" 
d="M115 676h189c159 0 246 -77 246 -204c0 -114 -68 -180 -185 -200l212 -272h-66l-208 268h-132v-268h-56v676zM171 627v-310h133c118 0 188 53 188 155s-70 155 -188 155h-133zM344 744h-40l-100 151h46l74 -99l74 99h46z" />
    <glyph glyph-name="Rcommaaccent" unicode="&#x156;" horiz-adv-x="615" 
d="M115 676h189c159 0 246 -77 246 -204c0 -114 -68 -180 -185 -200l212 -272h-66l-208 268h-132v-268h-56v676zM171 627v-310h133c118 0 188 53 188 155s-70 155 -188 155h-133zM317 -61h48c6 -18 8 -33 8 -48c0 -53 -24 -96 -81 -128l-21 37c40 24 54 53 54 89
c0 14 -1 29 -8 50z" />
    <glyph glyph-name="Sacute" unicode="&#x15a;" horiz-adv-x="562" 
d="M479 647v-53c-45 24 -101 44 -181 44c-79 0 -162 -36 -162 -131c0 -185 364 -90 364 -327c0 -138 -113 -192 -231 -192c-69 0 -143 20 -192 51v53c51 -31 119 -54 194 -54c89 0 172 36 172 139c0 192 -364 89 -364 328c0 125 109 183 221 183c80 0 134 -16 179 -41z
M251 744l84 151h62l-100 -151h-46z" />
    <glyph glyph-name="Scircumflex" unicode="&#x15c;" horiz-adv-x="562" 
d="M479 647v-53c-45 24 -101 44 -181 44c-79 0 -162 -36 -162 -131c0 -185 364 -90 364 -327c0 -138 -113 -192 -231 -192c-69 0 -143 20 -192 51v53c51 -31 119 -54 194 -54c89 0 172 36 172 139c0 192 -364 89 -364 328c0 125 109 183 221 183c80 0 134 -16 179 -41z
M269 895h40l100 -151h-46l-74 99l-74 -99h-46z" />
    <glyph glyph-name="Scaron" unicode="&#x160;" horiz-adv-x="562" 
d="M479 647v-53c-45 24 -101 44 -181 44c-79 0 -162 -36 -162 -131c0 -185 364 -90 364 -327c0 -138 -113 -192 -231 -192c-69 0 -143 20 -192 51v53c51 -31 119 -54 194 -54c89 0 172 36 172 139c0 192 -364 89 -364 328c0 125 109 183 221 183c80 0 134 -16 179 -41z
M309 744h-40l-100 151h46l74 -99l74 99h46z" />
    <glyph glyph-name="Scommaaccent" unicode="&#x218;" horiz-adv-x="562" 
d="M479 647v-53c-45 24 -101 44 -181 44c-79 0 -162 -36 -162 -131c0 -185 364 -90 364 -327c0 -138 -113 -192 -231 -192c-69 0 -143 20 -192 51v53c51 -31 119 -54 194 -54c89 0 172 36 172 139c0 192 -364 89 -364 328c0 125 109 183 221 183c80 0 134 -16 179 -41z
M277 -61h48c6 -18 8 -33 8 -48c0 -53 -24 -96 -81 -128l-21 37c40 24 54 53 54 89c0 14 -1 29 -8 50z" />
    <glyph glyph-name="Scedilla" unicode="&#x15e;" horiz-adv-x="562" 
d="M479 647v-53c-45 24 -101 44 -181 44c-79 0 -162 -36 -162 -131c0 -185 364 -90 364 -327c0 -119 -83 -176 -182 -189l-12 -43c55 0 80 -30 80 -75c0 -44 -34 -75 -89 -75c-20 0 -42 5 -57 12v46c10 -6 35 -14 58 -14s42 8 42 32c0 28 -21 32 -47 32h-40l22 82h-6
c-69 0 -143 20 -192 51v53c51 -31 119 -54 194 -54c89 0 172 36 172 139c0 192 -364 89 -364 328c0 125 109 183 221 183c80 0 134 -16 179 -41z" />
    <glyph glyph-name="Tcaron" unicode="&#x164;" horiz-adv-x="574" 
d="M21 676h532v-49h-238v-627h-56v627h-238v49zM307 744h-40l-100 151h46l74 -99l74 99h46z" />
    <glyph glyph-name="Tbar" unicode="&#x166;" horiz-adv-x="574" 
d="M21 676h532v-49h-238v-250h192v-50h-192v-327h-56v327h-192v50h192v250h-238v49z" />
    <glyph glyph-name="Tcommaaccent" unicode="&#x162;" horiz-adv-x="574" 
d="M21 676h532v-49h-238v-627h-56v627h-238v49zM261 -61h48c6 -18 8 -33 8 -48c0 -53 -24 -96 -81 -128l-21 37c40 24 54 53 54 89c0 14 -1 29 -8 50z" />
    <glyph glyph-name="Ugrave" unicode="&#xd9;" horiz-adv-x="688" 
d="M98 676h56v-440c0 -129 80 -198 190 -198c111 0 191 69 191 198v440h55v-442c0 -165 -113 -246 -246 -246c-132 0 -246 81 -246 246v442zM285 895l84 -151h-46l-100 151h62z" />
    <glyph glyph-name="Uacute" unicode="&#xda;" horiz-adv-x="688" 
d="M98 676h56v-440c0 -129 80 -198 190 -198c111 0 191 69 191 198v440h55v-442c0 -165 -113 -246 -246 -246c-132 0 -246 81 -246 246v442zM319 744l84 151h62l-100 -151h-46z" />
    <glyph glyph-name="Uhungarumlaut" unicode="&#x170;" horiz-adv-x="688" 
d="M98 676h56v-440c0 -129 80 -198 190 -198c111 0 191 69 191 198v440h55v-442c0 -165 -113 -246 -246 -246c-132 0 -246 81 -246 246v442zM394 895l-96 -151h-45l82 151h59zM535 895l-124 -151h-46l108 151h62z" />
    <glyph glyph-name="Ucircumflex" unicode="&#xdb;" horiz-adv-x="688" 
d="M98 676h56v-440c0 -129 80 -198 190 -198c111 0 191 69 191 198v440h55v-442c0 -165 -113 -246 -246 -246c-132 0 -246 81 -246 246v442zM323 895h40l100 -151h-46l-74 99l-74 -99h-46z" />
    <glyph glyph-name="Ubreve" unicode="&#x16c;" horiz-adv-x="688" 
d="M98 676h56v-440c0 -129 80 -198 190 -198c111 0 191 69 191 198v440h55v-442c0 -165 -113 -246 -246 -246c-132 0 -246 81 -246 246v442zM208 887h43c7 -54 36 -90 92 -90s85 36 92 90h43c-6 -80 -53 -137 -135 -137s-129 57 -135 137z" />
    <glyph glyph-name="Utilde" unicode="&#x168;" horiz-adv-x="688" 
d="M98 676h56v-440c0 -129 80 -198 190 -198c111 0 191 69 191 198v440h55v-442c0 -165 -113 -246 -246 -246c-132 0 -246 81 -246 246v442zM438 872h43c0 -60 -22 -110 -77 -110c-52 0 -83 65 -125 65c-26 0 -30 -34 -30 -63h-43c0 60 22 110 77 110c51 0 93 -65 125 -65
c26 0 30 34 30 63z" />
    <glyph glyph-name="Umacron" unicode="&#x16a;" horiz-adv-x="688" 
d="M98 676h56v-440c0 -129 80 -198 190 -198c111 0 191 69 191 198v440h55v-442c0 -165 -113 -246 -246 -246c-132 0 -246 81 -246 246v442zM462 841v-45h-238v45h238z" />
    <glyph glyph-name="Udieresis" unicode="&#xdc;" horiz-adv-x="688" 
d="M98 676h56v-440c0 -129 80 -198 190 -198c111 0 191 69 191 198v440h55v-442c0 -165 -113 -246 -246 -246c-132 0 -246 81 -246 246v442zM284 860v-83h-51v83h51zM453 860v-83h-51v83h51z" />
    <glyph glyph-name="Uogonek" unicode="&#x172;" horiz-adv-x="688" 
d="M98 676h56v-440c0 -129 80 -198 190 -198c111 0 191 69 191 198v440h55v-442c0 -147 -93 -227 -204 -243c-31 -27 -57 -57 -57 -101c0 -31 19 -47 48 -47c22 0 44 8 61 21v-48c-17 -10 -38 -18 -67 -18c-53 0 -87 34 -87 90c0 41 18 75 46 100c-123 6 -232 87 -232 246
v442z" />
    <glyph glyph-name="Uring" unicode="&#x16e;" horiz-adv-x="688" 
d="M98 676h56v-440c0 -129 80 -198 190 -198c111 0 191 69 191 198v440h55v-442c0 -165 -113 -246 -246 -246c-132 0 -246 81 -246 246v442zM444 820c0 -59 -49 -90 -101 -90s-101 31 -101 90c0 57 49 88 101 88s101 -31 101 -88zM402 819c0 33 -24 51 -59 51
s-60 -18 -60 -51s25 -51 60 -51s59 18 59 51z" />
    <glyph glyph-name="Wgrave" unicode="&#x1e80;" horiz-adv-x="974" 
d="M459 676h56l208 -610l181 610h57l-204 -676h-62l-208 606l-208 -606h-62l-204 676h57l181 -610zM425 895l84 -151h-46l-100 151h62z" />
    <glyph glyph-name="Wacute" unicode="&#x1e82;" horiz-adv-x="974" 
d="M459 676h56l208 -610l181 610h57l-204 -676h-62l-208 606l-208 -606h-62l-204 676h57l181 -610zM467 744l84 151h62l-100 -151h-46z" />
    <glyph glyph-name="Wcircumflex" unicode="&#x174;" horiz-adv-x="974" 
d="M459 676h56l208 -610l181 610h57l-204 -676h-62l-208 606l-208 -606h-62l-204 676h57l181 -610zM467 895h40l100 -151h-46l-74 99l-74 -99h-46z" />
    <glyph glyph-name="Wdieresis" unicode="&#x1e84;" horiz-adv-x="974" 
d="M459 676h56l208 -610l181 610h57l-204 -676h-62l-208 606l-208 -606h-62l-204 676h57l181 -610zM428 861v-83h-51v83h51zM597 861v-83h-51v83h51z" />
    <glyph glyph-name="Ygrave" unicode="&#x1ef2;" horiz-adv-x="558" 
d="M0 676h63l217 -348l219 348h59l-252 -403v-273h-56v273zM218 895l84 -151h-46l-100 151h62z" />
    <glyph glyph-name="Yacute" unicode="&#xdd;" horiz-adv-x="558" 
d="M0 676h63l217 -348l219 348h59l-252 -403v-273h-56v273zM255 744l84 151h62l-100 -151h-46z" />
    <glyph glyph-name="Ycircumflex" unicode="&#x176;" horiz-adv-x="558" 
d="M0 676h63l217 -348l219 348h59l-252 -403v-273h-56v273zM259 895h40l100 -151h-46l-74 99l-74 -99h-46z" />
    <glyph glyph-name="Ydieresis" unicode="&#x178;" horiz-adv-x="558" 
d="M0 676h63l217 -348l219 348h59l-252 -403v-273h-56v273zM220 865v-83h-51v83h51zM389 865v-83h-51v83h51z" />
    <glyph glyph-name="Zacute" unicode="&#x179;" horiz-adv-x="586" 
d="M52 676h487v-47l-429 -580h438v-49h-505v46l429 581h-420v49zM257 744l84 151h62l-100 -151h-46z" />
    <glyph glyph-name="Zcaron" unicode="&#x17d;" horiz-adv-x="586" 
d="M52 676h487v-47l-429 -580h438v-49h-505v46l429 581h-420v49zM316 744h-40l-100 151h46l74 -99l74 99h46z" />
    <glyph glyph-name="Zdotaccent" unicode="&#x17b;" horiz-adv-x="586" 
d="M52 676h487v-47l-429 -580h438v-49h-505v46l429 581h-420v49zM270 860h51v-83h-51v83z" />
    <glyph glyph-name="Eng" unicode="&#x14a;" horiz-adv-x="776" 
d="M115 676h52l442 -593v593h52v-692c0 -116 -58 -174 -154 -174c-34 0 -68 6 -96 20v53c25 -13 66 -23 96 -23c71 0 102 41 102 126v14l-442 593v-593h-52v676z" />
    <glyph glyph-name="Eth" unicode="&#xd0;" horiz-adv-x="752" 
d="M115 676h193c255 0 380 -132 380 -338s-125 -338 -380 -338h-193v327h-84v50h84v299zM171 627v-250h224v-50h-224v-278h137c199 0 320 94 320 289s-121 289 -320 289h-137z" />
    <glyph glyph-name="Thorn" unicode="&#xde;" horiz-adv-x="605" 
d="M115 676h56v-129h133c159 0 246 -77 246 -204c0 -132 -92 -204 -246 -204h-133v-139h-56v676zM171 498v-310h133c118 0 188 53 188 155s-70 155 -188 155h-133z" />
    <glyph glyph-name="copyright" unicode="&#xa9;" horiz-adv-x="820" 
d="M541 507v-48c-31 20 -73 28 -108 28c-87 0 -146 -40 -146 -150c0 -101 59 -149 147 -149c35 0 79 13 113 41v-51c-37 -25 -78 -36 -118 -36c-105 0 -192 61 -192 195c0 131 87 196 194 196c36 0 73 -6 110 -26zM409 642c-180 0 -300 -116 -300 -304s120 -304 300 -304
c181 0 302 116 302 304s-121 304 -302 304zM410 688c207 0 346 -138 346 -350s-139 -350 -346 -350c-208 0 -346 138 -346 350s138 350 346 350z" />
    <glyph glyph-name="registered" unicode="&#xae;" horiz-adv-x="544" 
d="M202 585h79c49 0 81 -23 81 -63c0 -34 -20 -54 -56 -62l61 -93h-43l-58 89h-25v-89h-39v218zM241 552v-63h40c27 0 41 12 41 31c0 20 -14 32 -41 32h-40zM272 688c119 0 208 -87 208 -211s-89 -211 -208 -211s-208 87 -208 211s89 211 208 211zM272 651
c-99 0 -172 -68 -172 -174s73 -174 172 -174s172 68 172 174s-73 174 -172 174z" />
    <glyph glyph-name="trademark" unicode="&#x2122;" horiz-adv-x="734" 
d="M20 676h243v-38h-101v-239h-42v239h-100v38zM342 676h59l97 -179l97 179h59v-277h-42v225l-94 -172h-40l-94 172v-225h-42v277z" />
    <glyph glyph-name="ordfeminine" unicode="&#xaa;" horiz-adv-x="408" 
d="M325 664v-279h-44v29c-23 -20 -51 -35 -88 -35c-71 0 -129 49 -129 151c0 107 73 156 150 156c40 0 79 -9 111 -22zM280 462v170c-21 8 -45 10 -68 10c-51 0 -102 -29 -102 -112c0 -79 39 -109 87 -109c32 0 65 16 83 41z" />
    <glyph glyph-name="ordmasculine" unicode="&#xba;" horiz-adv-x="408" 
d="M202 686c84 0 146 -62 146 -153c0 -92 -62 -154 -146 -154c-83 0 -146 62 -146 154c0 91 63 153 146 153zM202 644c-60 0 -100 -41 -100 -111c0 -71 40 -112 100 -112c61 0 101 41 101 112c0 70 -40 111 -101 111z" />
    <glyph glyph-name="degree" unicode="&#xb0;" horiz-adv-x="324" 
d="M273 560c0 -72 -49 -127 -111 -127c-61 0 -111 55 -111 127s50 128 111 128c62 0 111 -56 111 -128zM232 560c0 49 -28 87 -70 87c-41 0 -71 -38 -71 -87s30 -86 71 -86c42 0 70 37 70 86z" />
    <glyph glyph-name="asterisk" unicode="*" horiz-adv-x="365" 
d="M247 407l-65 100l-66 -100l-32 31l73 93l-110 28l11 42l107 -36l-4 111h41l-3 -111l107 36l11 -42l-110 -28l73 -93z" />
    <glyph glyph-name="dagger" unicode="&#x2020;" horiz-adv-x="392" 
d="M341 529h-123v-220h-44v220h-123v42h123v105h44v-105h123v-42z" />
    <glyph glyph-name="daggerdbl" unicode="&#x2021;" horiz-adv-x="392" 
d="M341 540h-123v-95h123v-41h-123v-95h-44v95h-123v41h123v95h-123v41h123v95h44v-95h123v-41z" />
    <glyph glyph-name="integral" unicode="&#x222b;" horiz-adv-x="229" 
d="M251 722v-48c-62 0 -112 -25 -112 -116v-594c0 -110 -65 -166 -160 -166v48c62 0 112 25 112 116v594c0 110 65 166 160 166z" />
    <glyph glyph-name="section" unicode="&#xa7;" horiz-adv-x="531" 
d="M135 370c-13 -18 -20 -41 -20 -69c0 -137 182 -112 284 -178c12 20 18 43 18 70c0 138 -179 115 -282 177zM449 647v-53c-43 23 -95 44 -169 44c-73 0 -160 -33 -160 -129c0 -190 350 -67 350 -313c0 -41 -14 -75 -36 -103c21 -25 33 -59 33 -105
c0 -119 -90 -190 -215 -190c-69 0 -142 20 -191 51v53c51 -31 119 -54 194 -54c96 0 157 52 157 137c0 195 -350 69 -350 314c0 41 14 75 37 102c-21 24 -34 58 -34 106c0 122 109 181 218 181c71 0 123 -18 166 -41z" />
    <glyph glyph-name="paragraph" unicode="&#xb6;" horiz-adv-x="710" 
d="M595 676v-866h-48v866h48zM378 -190v432h-58c-163 0 -256 66 -256 217s93 217 256 217h107v-866h-49z" />
    <glyph glyph-name="ampersand" unicode="&#x26;" horiz-adv-x="654" 
d="M387 322h258v-47h-97v-37c0 -144 -90 -250 -252 -250c-159 0 -249 86 -249 209c0 107 64 159 144 179c-60 18 -119 60 -119 144c0 117 109 168 217 168c73 0 131 -16 176 -41v-53c-45 25 -109 44 -177 44c-87 0 -157 -37 -157 -117c0 -85 76 -119 167 -119h34v-50h-31
c-111 0 -196 -50 -196 -156c0 -104 73 -158 194 -158c122 0 194 75 194 199v38h-106v47z" />
    <glyph glyph-name="zero" unicode="0" 
d="M290 638c-118 0 -178 -121 -178 -299s60 -301 178 -301c117 0 177 123 177 301s-60 299 -177 299zM290 688c138 0 236 -114 236 -350s-98 -350 -236 -350c-139 0 -237 114 -237 350s98 350 237 350z" />
    <glyph glyph-name="one" unicode="1" 
d="M353 676v-676h-55v627h-127v49h182z" />
    <glyph glyph-name="two" unicode="2" 
d="M95 575v63c47 32 99 50 172 50c117 0 211 -61 211 -197c0 -122 -70 -201 -164 -286l-171 -156h345v-49h-413v49l207 198c88 84 138 146 138 243c0 102 -68 148 -156 148c-74 0 -125 -25 -169 -63z" />
    <glyph glyph-name="three" unicode="3" 
d="M91 676h392v-45l-230 -238c7 0 14 1 21 1c115 0 217 -63 217 -197c0 -131 -93 -209 -235 -209c-60 0 -124 16 -172 42v53c53 -28 113 -45 172 -45c109 0 176 55 176 158c0 121 -89 152 -177 152c-24 0 -48 -3 -70 -6v46l234 239h-328v49z" />
    <glyph glyph-name="four" unicode="4" 
d="M47 227l340 449h52v-446h88v-49h-88v-181h-52v181h-340v46zM106 230h281v372z" />
    <glyph glyph-name="five" unicode="5" 
d="M89 83c48 -26 111 -45 170 -45c91 0 172 43 172 173c0 120 -87 157 -178 157c-46 0 -95 -9 -133 -21l-12 14l42 315h322v-49h-277l-28 -218c27 6 57 9 86 9c117 0 237 -51 237 -207c0 -162 -113 -223 -231 -223c-60 0 -120 16 -170 42v53z" />
    <glyph glyph-name="six" unicode="6" 
d="M497 664v-53c-41 17 -87 27 -141 27c-123 0 -220 -69 -224 -291c36 39 102 80 183 80c116 0 209 -67 209 -212c0 -130 -86 -227 -218 -227c-155 0 -231 139 -231 330c0 289 133 370 284 370c54 0 99 -9 138 -24zM133 284c0 -103 44 -246 173 -246c98 0 161 66 161 176
c0 109 -56 163 -155 163c-81 0 -153 -52 -179 -93z" />
    <glyph glyph-name="seven" unicode="7" 
d="M88 676h429v-45c-148 -172 -264 -356 -304 -631h-58c45 268 161 477 294 627h-361v49z" />
    <glyph glyph-name="eight" unicode="8" 
d="M289 330c-88 0 -170 -37 -170 -147c0 -96 82 -145 170 -145c87 0 170 49 170 145c0 110 -83 147 -170 147zM289 638c-80 0 -153 -43 -153 -127c0 -89 75 -132 153 -132s153 43 153 132c0 84 -73 127 -153 127zM289 -12c-137 0 -228 80 -228 195c0 99 55 148 124 172
c-60 27 -107 69 -107 158c0 103 92 175 211 175s211 -72 211 -175c0 -89 -47 -131 -108 -158c69 -24 125 -73 125 -172c0 -115 -91 -195 -228 -195z" />
    <glyph glyph-name="nine" unicode="9" 
d="M88 11v53c41 -17 87 -27 141 -27c123 0 220 69 224 291c-36 -39 -102 -80 -183 -80c-116 0 -209 67 -209 212c0 130 86 227 218 227c155 0 231 -139 231 -330c0 -289 -133 -370 -284 -370c-54 0 -99 9 -138 24zM452 391c0 103 -44 246 -173 246c-98 0 -161 -66 -161 -176
c0 -109 56 -163 155 -163c81 0 153 52 179 93z" />
    <glyph glyph-name="Euro" unicode="&#x20ac;" 
d="M520 662v-53c-39 18 -85 29 -130 29c-108 0 -193 -57 -217 -191h306l-10 -45h-303c-3 -20 -4 -42 -4 -64c0 -16 1 -31 2 -46h280l-11 -46h-262c28 -142 120 -208 226 -208c41 0 85 9 127 30v-54c-38 -18 -86 -26 -129 -26c-131 0 -253 78 -281 258h-86l11 46h69
c-1 15 -2 30 -2 46c0 22 1 44 3 64h-82l11 45h77c35 165 140 241 275 241c44 0 94 -9 130 -26z" />
    <glyph glyph-name="sterling" unicode="&#xa3;" 
d="M512 652v-53c-47 26 -96 39 -153 39c-87 0 -143 -42 -143 -126c0 -54 10 -89 30 -146h216v-45h-202c8 -28 15 -75 15 -101c0 -87 -36 -133 -98 -171h346v-49h-420v47c85 54 117 88 117 171c0 27 -7 71 -17 103h-110v45h95c-14 50 -27 85 -27 145c0 102 76 177 199 177
c60 0 111 -13 152 -36z" />
    <glyph glyph-name="florin" unicode="&#x192;" 
d="M174 0v321h-98v45h98v114c0 145 92 208 200 208c43 0 91 -9 127 -26v-53c-39 18 -82 29 -126 29c-83 0 -145 -45 -145 -156v-116h235v-45h-235v-321h-56z" />
    <glyph glyph-name="yen" unicode="&#xa5;" 
d="M544 676l-221 -338h163v-46h-174v-112h174v-46h-174v-134h-56v134h-175v46h175v112h-175v46h163l-211 338h62l191 -307l201 307h57z" />
    <glyph glyph-name="dollar" unicode="$" 
d="M269 -110v118c-69 0 -139 18 -186 47v55c49 -29 114 -51 186 -51c86 0 164 30 164 126c0 181 -349 87 -349 310c0 108 88 163 185 172v110h43v-109c68 -2 116 -18 157 -40v-53c-44 22 -97 41 -175 41c-75 0 -154 -29 -154 -119c0 -172 348 -85 348 -309
c0 -113 -81 -165 -176 -177v-121h-43z" />
    <glyph glyph-name="cent" unicode="&#xa2;" 
d="M299 -110v169c-123 19 -202 118 -202 279c0 152 79 257 202 276v163h44v-159c55 0 111 -16 140 -34v-57c-44 24 -93 37 -140 37c-101 0 -191 -63 -191 -226c0 -169 91 -229 191 -229c50 0 102 15 147 39v-56c-29 -18 -92 -36 -147 -36v-166h-44z" />
    <glyph glyph-name="bar" unicode="|" horiz-adv-x="273" 
d="M158 800v-990h-43v990h43z" />
    <glyph glyph-name="brokenbar" unicode="&#xa6;" horiz-adv-x="273" 
d="M158 800v-410h-43v410h43zM158 220v-410h-43v410h43z" />
    <glyph glyph-name="minus" unicode="&#x2212;" 
d="M522 336v-50h-466v50h466z" />
    <glyph glyph-name="plus" unicode="+" 
d="M522 336v-50h-210v-200h-46v200h-210v50h210v200h46v-200h210z" />
    <glyph glyph-name="multiply" unicode="&#xd7;" 
d="M97 501l30 36l162 -190l161 190l31 -36l-161 -190l161 -190l-31 -36l-161 190l-162 -190l-30 36l161 190z" />
    <glyph glyph-name="divide" unicode="&#xf7;" 
d="M255 86v67h68v-67h-68zM255 469v67h68v-67h-68zM522 336v-50h-466v50h466z" />
    <glyph glyph-name="equal" unicode="=" 
d="M522 436v-50h-466v50h466zM522 236v-50h-466v50h466z" />
    <glyph glyph-name="notequal" unicode="&#x2260;" 
d="M479 548l-78 -112h121v-50h-156l-103 -150h259v-50h-294l-78 -112h-51l77 112h-120v50h155l103 150h-258v50h292l78 112h53z" />
    <glyph glyph-name="approxequal" unicode="&#x2248;" 
d="M56 391c26 34 65 57 115 57c79 0 168 -48 239 -48c46 0 66 18 85 43l26 -37c-25 -34 -65 -57 -115 -57c-79 0 -166 48 -239 48c-45 0 -66 -18 -85 -43zM406 169c-79 0 -166 48 -239 48c-45 0 -66 -18 -85 -43l-26 37c26 34 65 57 115 57c79 0 168 -48 239 -48
c46 0 66 18 85 43l26 -37c-25 -34 -65 -57 -115 -57z" />
    <glyph glyph-name="logicalnot" unicode="&#xac;" 
d="M522 436v-250h-46v200h-420v50h466z" />
    <glyph glyph-name="less" unicode="&#x3c;" 
d="M56 293v44l466 215v-53l-396 -184l396 -184v-53z" />
    <glyph glyph-name="greater" unicode="&#x3e;" 
d="M522 337v-44l-466 -215v53l396 184l-396 184v53z" />
    <glyph glyph-name="lessequal" unicode="&#x2264;" 
d="M522 49v-49h-466v49h466zM56 291v44l466 192v-52l-400 -162l400 -163v-52z" />
    <glyph glyph-name="plusminus" unicode="&#xb1;" 
d="M522 336v-50h-210v-198h-46v198h-210v50h210v198h46v-198h210zM522 49v-49h-466v49h466z" />
    <glyph glyph-name="greaterequal" unicode="&#x2265;" 
d="M56 0v49h466v-49h-466zM522 335v-44l-466 -193v52l400 163l-400 162v52z" />
    <glyph glyph-name="infinity" unicode="&#x221e;" horiz-adv-x="571" 
d="M535 315c0 -78 -47 -131 -117 -131c-59 0 -95 45 -133 91c-38 -46 -74 -91 -133 -91c-70 0 -117 53 -117 131s47 131 117 131c59 0 95 -45 133 -91c38 46 74 91 133 91c70 0 117 -53 117 -131zM309 315c39 -50 66 -85 112 -85c45 0 72 31 72 85s-27 85 -72 85
c-46 0 -73 -35 -112 -85zM261 315c-39 50 -66 85 -112 85c-45 0 -72 -31 -72 -85s27 -85 72 -85c46 0 73 35 112 85z" />
    <glyph glyph-name="radical" unicode="&#x221a;" horiz-adv-x="486" 
d="M0 427v48h112l145 -415l181 616h48l-201 -676h-56l-151 427h-78z" />
    <glyph glyph-name="Delta" unicode="&#x394;" horiz-adv-x="512" 
d="M275 676l221 -631v-45h-481v45l219 631h41zM252 607l-188 -558h381z" />
    <glyph glyph-name="Delta" unicode="&#x2206;" horiz-adv-x="512" 
d="M275 676l221 -631v-45h-481v45l219 631h41zM252 607l-188 -558h381z" />
    <glyph glyph-name="lozenge" unicode="&#x25ca;" horiz-adv-x="517" 
d="M433 332l-174 293l-176 -293l176 -281zM483 332l-208 -332h-34l-208 332l208 344h34z" />
    <glyph glyph-name="summation" unicode="&#x2211;" 
d="M511 676v-46h-381l246 -284l-246 -297h381v-49h-445v43l251 303l-251 287v43h445z" />
    <glyph glyph-name="product" unicode="&#x220f;" horiz-adv-x="681" 
d="M566 676v-676h-48v630h-355v-630h-48v676h451z" />
    <glyph glyph-name="pi" unicode="&#x3c0;" horiz-adv-x="557" 
d="M38 427v48h467v-48h-80v-427h-49v427h-192l-42 -427h-49l42 427h-97z" />
    <glyph glyph-name="mu" unicode="&#xb5;" horiz-adv-x="558" 
d="M258 -12c-51 0 -97 22 -123 64l7 -242h-51v665h51v-294c0 -104 49 -143 123 -143c62 0 112 31 151 81v356h51v-475h-48l-3 57c-39 -39 -85 -69 -158 -69z" />
    <glyph glyph-name="mu" unicode="&#x3bc;" horiz-adv-x="558" 
d="M258 -12c-51 0 -97 22 -123 64l7 -242h-51v665h51v-294c0 -104 49 -143 123 -143c62 0 112 31 151 81v356h51v-475h-48l-3 57c-39 -39 -85 -69 -158 -69z" />
    <glyph glyph-name="partialdiff" unicode="&#x2202;" horiz-adv-x="571" 
d="M114 603l-15 46c43 27 106 39 157 39c151 0 256 -109 256 -334c0 -248 -123 -366 -260 -366c-126 0 -197 92 -197 206c0 153 103 226 212 226c71 0 148 -32 197 -93c0 230 -83 311 -213 311c-44 0 -100 -11 -137 -35zM456 266c-38 63 -113 104 -186 104
c-90 0 -163 -52 -163 -176c0 -108 69 -156 143 -156c102 0 188 76 206 228z" />
    <glyph glyph-name="Omega" unicode="&#x3a9;" horiz-adv-x="694" 
d="M634 49v-49h-233v38c97 81 185 199 185 345c0 138 -70 255 -239 255s-239 -117 -239 -255c0 -146 87 -264 184 -345v-38h-233v49h166c-90 81 -164 183 -164 333c0 172 100 306 286 306c185 0 285 -134 285 -306c0 -150 -74 -252 -164 -333h166z" />
    <glyph glyph-name="Omega" unicode="&#x2126;" horiz-adv-x="694" 
d="M634 49v-49h-233v38c97 81 185 199 185 345c0 138 -70 255 -239 255s-239 -117 -239 -255c0 -146 87 -264 184 -345v-38h-233v49h166c-90 81 -164 183 -164 333c0 172 100 306 286 306c185 0 285 -134 285 -306c0 -150 -74 -252 -164 -333h166z" />
    <glyph glyph-name="asciitilde" unicode="~" 
d="M99 250h-43c0 72 40 118 97 118c78 0 207 -70 273 -70c33 0 53 24 53 70h43c0 -71 -40 -118 -96 -118c-78 0 -205 71 -273 71c-34 0 -54 -24 -54 -71z" />
    <glyph glyph-name="asciicircum" unicode="^" 
d="M267 676h44l204 -424h-52l-174 364l-174 -364h-52z" />
    <glyph glyph-name="fraction" unicode="&#x2044;" horiz-adv-x="420" 
d="M420 676l-371 -676h-49l371 676h49z" />
    <glyph glyph-name="percent" unicode="%" horiz-adv-x="879" 
d="M360 477c0 -129 -54 -211 -150 -211s-151 82 -151 211s55 211 151 211s150 -82 150 -211zM652 676l-374 -676h-50l374 676h50zM314 477c0 104 -33 164 -104 164s-104 -60 -104 -164s33 -164 104 -164s104 60 104 164zM819 200c0 -129 -54 -211 -150 -211
s-151 82 -151 211s55 211 151 211s150 -82 150 -211zM773 200c0 104 -33 164 -104 164s-104 -60 -104 -164s33 -164 104 -164s104 60 104 164z" />
    <glyph glyph-name="perthousand" unicode="&#x2030;" horiz-adv-x="1236" 
d="M1176 200c0 -129 -54 -211 -150 -211s-151 82 -151 211s55 211 151 211s150 -82 150 -211zM1130 200c0 104 -33 164 -104 164s-104 -60 -104 -164s33 -164 104 -164s104 60 104 164zM360 477c0 -129 -54 -211 -150 -211s-151 82 -151 211s55 211 151 211
s150 -82 150 -211zM652 676l-374 -676h-50l374 676h50zM314 477c0 104 -33 164 -104 164s-104 -60 -104 -164s33 -164 104 -164s104 60 104 164zM819 200c0 -129 -54 -211 -150 -211s-151 82 -151 211s55 211 151 211s150 -82 150 -211zM773 200c0 104 -33 164 -104 164
s-104 -60 -104 -164s33 -164 104 -164s104 60 104 164z" />
    <glyph glyph-name="onehalf" unicode="&#xbd;" horiz-adv-x="746" 
d="M175 676v-412h-46v370h-104v42h150zM454 350v47c31 19 73 27 107 27c76 0 132 -41 132 -121c0 -68 -42 -112 -88 -158l-102 -102h194v-43h-254v36l129 137c42 45 74 80 74 130s-32 79 -85 79c-36 0 -74 -9 -107 -32zM533 676l-371 -676h-49l371 676h49z" />
    <glyph glyph-name="onequarter" unicode="&#xbc;" horiz-adv-x="700" 
d="M364 131l203 289h42v-282h60v-42h-60v-96h-42v96h-203v35zM416 138h151v215zM175 676v-412h-46v370h-104v42h150zM533 676l-371 -676h-49l371 676h49z" />
    <glyph glyph-name="threequarters" unicode="&#xbe;" horiz-adv-x="736" 
d="M399 131l204 289h42v-282h60v-42h-60v-96h-42v96h-204v35zM452 138h151v215zM107 501l128 135h-195v40h246v-38l-125 -132c68 0 136 -29 136 -120c0 -78 -56 -129 -146 -129c-42 0 -86 12 -114 28v46c28 -17 72 -31 113 -31c62 0 102 31 102 84c0 69 -51 84 -105 84
c-13 0 -27 -1 -40 -2v35zM598 676l-371 -676h-49l371 676h49z" />
    <glyph glyph-name="onesuperior" unicode="&#xb9;" horiz-adv-x="262" 
d="M175 676v-412h-46v370h-104v42h150z" />
    <glyph glyph-name="twosuperior" unicode="&#xb2;" horiz-adv-x="336" 
d="M43 614v47c31 19 73 27 107 27c76 0 132 -41 132 -121c0 -68 -42 -112 -88 -158l-102 -102h194v-43h-254v36l129 137c42 45 74 80 74 130s-32 79 -85 79c-36 0 -74 -9 -107 -32z" />
    <glyph glyph-name="threesuperior" unicode="&#xb3;" horiz-adv-x="341" 
d="M107 501l128 135h-195v40h246v-38l-125 -132c68 0 136 -29 136 -120c0 -78 -56 -129 -146 -129c-42 0 -86 12 -114 28v46c28 -17 72 -31 113 -31c62 0 102 31 102 84c0 69 -51 84 -105 84c-13 0 -27 -1 -40 -2v35z" />
    <glyph glyph-name="grave" unicode="`" horiz-adv-x="510" 
d="M244 710l84 -151h-46l-100 151h62z" />
    <glyph glyph-name="acute" unicode="&#xb4;" horiz-adv-x="510" 
d="M181 559l84 151h62l-100 -151h-46z" />
    <glyph glyph-name="hungarumlaut" unicode="&#x2dd;" horiz-adv-x="510" 
d="M252 710l-96 -151h-45l82 151h59zM393 710l-124 -151h-46l108 151h62z" />
    <glyph glyph-name="circumflex" unicode="&#x2c6;" horiz-adv-x="510" 
d="M235 710h40l100 -151h-46l-74 99l-74 -99h-46z" />
    <glyph glyph-name="caron" unicode="&#x2c7;" horiz-adv-x="510" 
d="M275 559h-40l-100 151h46l74 -99l74 99h46z" />
    <glyph glyph-name="breve" unicode="&#x2d8;" horiz-adv-x="510" 
d="M120 703h43c7 -54 36 -90 92 -90s85 36 92 90h43c-6 -80 -53 -137 -135 -137s-129 57 -135 137z" />
    <glyph glyph-name="tilde" unicode="&#x2dc;" horiz-adv-x="510" 
d="M349 688h43c0 -60 -22 -110 -77 -110c-52 0 -83 65 -125 65c-26 0 -30 -34 -30 -63h-43c0 60 22 110 77 110c51 0 93 -65 125 -65c26 0 30 34 30 63z" />
    <glyph glyph-name="macron" unicode="&#xaf;" horiz-adv-x="510" 
d="M374 657v-45h-238v45h238z" />
    <glyph glyph-name="dotaccent" unicode="&#x2d9;" horiz-adv-x="510" 
d="M229 680h51v-83h-51v83z" />
    <glyph glyph-name="dieresis" unicode="&#xa8;" horiz-adv-x="510" 
d="M196 680v-83h-51v83h51zM365 680v-83h-51v83h51z" />
    <glyph glyph-name="ring" unicode="&#x2da;" horiz-adv-x="510" 
d="M356 635c0 -59 -49 -90 -101 -90s-101 31 -101 90c0 57 49 88 101 88s101 -31 101 -88zM314 634c0 33 -24 51 -59 51s-60 -18 -60 -51s25 -51 60 -51s59 18 59 51z" />
    <glyph glyph-name="cedilla" unicode="&#xb8;" horiz-adv-x="510" 
d="M267 0l-15 -52c55 0 80 -30 80 -75c0 -44 -34 -75 -89 -75c-20 0 -42 5 -57 12v46c10 -6 35 -14 58 -14s42 8 42 32c0 28 -21 32 -47 32h-40l26 94h42z" />
    <glyph glyph-name="commaaccent" horiz-adv-x="510" 
d="M204 -61h48c6 -18 8 -33 8 -48c0 -53 -24 -96 -81 -128l-21 37c40 24 54 53 54 89c0 14 -1 29 -8 50z" />
    <glyph glyph-name="ogonek" unicode="&#x2db;" horiz-adv-x="510" 
d="M231 0h51c-34 -30 -67 -61 -67 -110c0 -31 20 -47 48 -47c22 0 44 8 61 21v-48c-17 -10 -38 -18 -67 -18c-53 0 -87 34 -87 90c0 47 24 86 61 112z" />
    <glyph glyph-name=".null" horiz-adv-x="0" 
 />
    <glyph glyph-name="CR" horiz-adv-x="240" 
 />
    <glyph glyph-name="zero.onum" horiz-adv-x="546" 
d="M492 237c0 -149 -86 -249 -219 -249s-219 100 -219 249s86 250 219 250s219 -101 219 -250zM440 237c0 127 -69 200 -167 200s-167 -73 -167 -200s69 -199 167 -199s167 72 167 199z" />
    <glyph glyph-name="one.onum" horiz-adv-x="324" 
d="M30 418l156 57h47v-475h-51v425l-152 -54v47z" />
    <glyph glyph-name="two.onum" horiz-adv-x="489" 
d="M65 397v55c33 19 92 35 154 35c103 0 188 -50 188 -152c0 -119 -135 -194 -271 -286h284v-49h-370v41c180 130 302 196 302 291c0 72 -60 105 -133 105c-65 0 -119 -20 -154 -40z" />
    <glyph glyph-name="three.onum" horiz-adv-x="468" 
d="M125 161v50h71c92 0 156 39 156 118c0 76 -67 108 -147 108c-65 0 -119 -20 -154 -40v55c33 19 92 35 155 35c108 0 198 -49 198 -156c0 -85 -53 -127 -109 -144c57 -17 120 -60 120 -153c0 -128 -102 -181 -211 -181c-57 0 -116 14 -164 40v57c49 -29 103 -47 166 -47
c81 0 157 35 157 129c0 98 -84 129 -167 129h-71z" />
    <glyph glyph-name="four.onum" horiz-adv-x="484" 
d="M323 482h54v-387h86v-46h-86v-188h-52v188h-293v36zM97 95h229v314z" />
    <glyph glyph-name="five.onum" horiz-adv-x="484" 
d="M407 475v-49h-259l-18 -191c15 1 30 2 44 2c148 0 250 -66 250 -192c0 -130 -111 -192 -230 -192c-47 0 -96 10 -139 29v55c44 -23 92 -34 138 -34c94 0 176 48 176 141c0 95 -72 145 -204 145c-27 0 -62 -2 -86 -6l-4 5l29 287h303z" />
    <glyph glyph-name="six.onum" horiz-adv-x="566" 
d="M131 266c3 -101 29 -228 164 -228c89 0 150 63 150 159c0 109 -67 144 -144 144c-69 0 -138 -36 -170 -75zM132 327c32 28 93 64 169 64c108 0 197 -59 197 -191c0 -120 -82 -212 -205 -212c-174 0 -215 168 -215 286c0 233 106 348 266 348c57 0 114 -18 143 -35v-55
c-33 20 -82 40 -143 40c-130 0 -200 -86 -212 -245z" />
    <glyph glyph-name="seven.onum" horiz-adv-x="459" 
d="M36 475h376v-43c-148 -159 -257 -349 -301 -571h-54c43 218 157 427 291 568h-312v46z" />
    <glyph glyph-name="eight.onum" horiz-adv-x="527" 
d="M264 295c-82 0 -162 -32 -162 -130c0 -85 80 -127 162 -127s162 42 162 127c0 98 -80 130 -162 130zM264 -12c-117 0 -212 65 -212 175c0 90 52 135 115 158c-54 23 -100 62 -100 144c0 99 91 157 197 157s197 -58 197 -157c0 -82 -46 -121 -100 -144
c63 -23 115 -68 115 -158c0 -110 -95 -175 -212 -175zM264 572c-78 0 -146 -38 -146 -112c0 -80 70 -119 146 -119s146 39 146 119c0 74 -68 112 -146 112z" />
    <glyph glyph-name="nine.onum" horiz-adv-x="566" 
d="M439 209c-3 101 -29 228 -164 228c-89 0 -150 -63 -150 -159c0 -109 67 -144 144 -144c69 0 138 36 170 75zM438 148c-32 -28 -93 -64 -169 -64c-108 0 -197 59 -197 191c0 120 82 212 205 212c174 0 215 -168 215 -286c0 -233 -106 -348 -266 -348
c-57 0 -114 18 -143 35v55c33 -20 82 -40 143 -40c130 0 200 86 212 245z" />
    <glyph glyph-name="Euro.onum" horiz-adv-x="545" 
d="M479 462v-55c-37 19 -80 30 -123 30c-83 0 -151 -34 -180 -110h255l-9 -43h-257c-2 -15 -3 -30 -3 -46c0 -19 2 -36 4 -51h236l-9 -43h-215c30 -74 96 -106 176 -106c56 0 99 20 132 42v-57c-37 -22 -81 -35 -139 -35c-110 0 -191 60 -223 156h-87l9 43h68
c-3 16 -4 33 -4 51c0 16 1 31 3 46h-76l9 43h76c31 99 115 160 232 160c46 0 88 -8 125 -25z" />
    <glyph glyph-name="sterling.onum" horiz-adv-x="505" 
d="M400 224h-203c8 -24 15 -48 15 -79c0 -45 -23 -75 -60 -98h294v-47h-386v38c40 22 100 54 100 105c0 31 -10 54 -20 81h-80v45h66c-5 19 -8 42 -8 70c0 96 86 148 186 148c52 0 104 -12 143 -33v-56c-38 24 -89 39 -144 39c-78 0 -132 -36 -132 -95c0 -29 4 -52 10 -73
h219v-45z" />
    <glyph glyph-name="florin.onum" horiz-adv-x="489" 
d="M189 0h-52v214h-87v45h87v61c0 117 97 167 196 167c47 0 95 -11 133 -32v-56c-36 23 -87 38 -135 38c-74 0 -142 -34 -142 -115v-63h230v-45h-230v-214z" />
    <glyph glyph-name="yen.onum" horiz-adv-x="542" 
d="M492 475l-180 -218h142v-43h-158v-97h158v-43h-158v-74h-51v74h-159v43h159v97h-159v43h140l-176 218h62l159 -196l166 196h55z" />
    <glyph glyph-name="dollar.onum" horiz-adv-x="464" 
d="M213 -122v110c-59 2 -111 17 -155 44v55c50 -31 106 -49 169 -49c79 0 128 26 128 86c0 137 -298 44 -298 225c0 82 66 128 156 136v100h45v-98c50 -3 110 -17 139 -34v-56c-37 24 -99 40 -155 40c-68 0 -133 -24 -133 -85c0 -128 299 -40 299 -225
c0 -85 -64 -129 -150 -137v-112h-45z" />
    <glyph glyph-name="cent.onum" horiz-adv-x="491" 
d="M424 462v-55c-36 19 -80 30 -123 30c-110 0 -194 -59 -194 -199s84 -200 192 -200c56 0 99 20 132 42v-57c-36 -22 -81 -35 -138 -35h-6v-110h-45v115c-114 20 -188 113 -188 245c0 129 73 221 188 243v104h45v-98h12c46 0 89 -8 125 -25z" />
    <glyph glyph-name="zero.pnum" horiz-adv-x="617" 
d="M309 638c-118 0 -178 -121 -178 -299s60 -301 178 -301c117 0 177 123 177 301s-60 299 -177 299zM309 688c138 0 236 -114 236 -350s-98 -350 -236 -350c-139 0 -237 114 -237 350s98 350 237 350z" />
    <glyph glyph-name="one.pnum" horiz-adv-x="318" 
d="M203 676v-676h-55v627h-127v49h182z" />
    <glyph glyph-name="two.pnum" horiz-adv-x="526" 
d="M62 575v63c47 32 99 50 172 50c117 0 211 -61 211 -197c0 -122 -70 -201 -164 -286l-171 -156h345v-49h-413v49l207 198c88 84 138 146 138 243c0 102 -68 148 -156 148c-74 0 -125 -25 -169 -63z" />
    <glyph glyph-name="three.pnum" horiz-adv-x="504" 
d="M55 676h392v-45l-230 -238c7 0 14 1 21 1c115 0 217 -63 217 -197c0 -131 -93 -209 -235 -209c-60 0 -124 16 -172 42v53c53 -28 113 -45 172 -45c109 0 176 55 176 158c0 121 -89 152 -177 152c-24 0 -48 -3 -70 -6v46l234 239h-328v49z" />
    <glyph glyph-name="four.pnum" horiz-adv-x="537" 
d="M27 227l340 449h52v-446h88v-49h-88v-181h-52v181h-340v46zM86 230h281v372z" />
    <glyph glyph-name="five.pnum" horiz-adv-x="533" 
d="M63 83c48 -26 111 -45 170 -45c91 0 172 43 172 173c0 120 -87 157 -178 157c-46 0 -95 -9 -133 -21l-12 14l42 315h322v-49h-277l-28 -218c27 6 57 9 86 9c117 0 237 -51 237 -207c0 -162 -113 -223 -231 -223c-60 0 -120 16 -170 42v53z" />
    <glyph glyph-name="six.pnum" horiz-adv-x="560" 
d="M482 664v-53c-41 17 -87 27 -141 27c-123 0 -220 -69 -224 -291c36 39 102 80 183 80c116 0 209 -67 209 -212c0 -130 -86 -227 -218 -227c-155 0 -231 139 -231 330c0 289 133 370 284 370c54 0 99 -9 138 -24zM118 284c0 -103 44 -246 173 -246c98 0 161 66 161 176
c0 109 -56 163 -155 163c-81 0 -153 -52 -179 -93z" />
    <glyph glyph-name="seven.pnum" horiz-adv-x="484" 
d="M38 676h429v-45c-148 -172 -264 -356 -304 -631h-58c45 268 161 477 294 627h-361v49z" />
    <glyph glyph-name="eight.pnum" horiz-adv-x="592" 
d="M296 330c-88 0 -170 -37 -170 -147c0 -96 82 -145 170 -145c87 0 170 49 170 145c0 110 -83 147 -170 147zM296 638c-80 0 -153 -43 -153 -127c0 -89 75 -132 153 -132s153 43 153 132c0 84 -73 127 -153 127zM296 -12c-137 0 -228 80 -228 195c0 99 55 148 124 172
c-60 27 -107 69 -107 158c0 103 92 175 211 175s211 -72 211 -175c0 -89 -47 -131 -108 -158c69 -24 125 -73 125 -172c0 -115 -91 -195 -228 -195z" />
    <glyph glyph-name="nine.pnum" horiz-adv-x="560" 
d="M444 392c0 121 -40 246 -169 246c-94 0 -166 -65 -166 -175c0 -109 61 -164 160 -164c81 0 149 52 175 93zM444 328c-35 -38 -98 -78 -180 -78c-115 0 -211 65 -211 212c0 130 94 226 222 226c151 0 225 -127 225 -317c0 -298 -131 -383 -276 -383c-58 0 -104 12 -144 31
v53c44 -21 91 -34 144 -34c123 0 211 80 220 290z" />
    <glyph glyph-name="Euro.pnum" horiz-adv-x="597" 
d="M535 662v-53c-39 18 -85 29 -130 29c-108 0 -193 -57 -217 -191h306l-10 -45h-303c-3 -20 -4 -42 -4 -64c0 -16 1 -31 2 -46h280l-11 -46h-262c28 -142 120 -208 226 -208c41 0 85 9 127 30v-54c-38 -18 -86 -26 -129 -26c-131 0 -253 78 -281 258h-86l11 46h69
c-1 15 -2 30 -2 46c0 22 1 44 3 64h-82l11 45h77c35 165 140 241 275 241c44 0 94 -9 130 -26z" />
    <glyph glyph-name="sterling.pnum" horiz-adv-x="507" 
d="M461 652v-53c-47 26 -96 39 -153 39c-87 0 -143 -42 -143 -126c0 -54 10 -89 30 -146h216v-45h-202c8 -28 15 -75 15 -101c0 -87 -36 -133 -98 -171h346v-49h-420v47c85 54 117 88 117 171c0 27 -7 71 -17 103h-110v45h95c-14 50 -27 85 -27 145c0 102 76 177 199 177
c60 0 111 -13 152 -36z" />
    <glyph glyph-name="florin.pnum" horiz-adv-x="496" 
d="M134 0v321h-98v45h98v114c0 145 92 208 200 208c43 0 91 -9 127 -26v-53c-39 18 -82 29 -126 29c-83 0 -145 -45 -145 -156v-116h235v-45h-235v-321h-56z" />
    <glyph glyph-name="yen.pnum" horiz-adv-x="536" 
d="M524 676l-221 -338h163v-46h-174v-112h174v-46h-174v-134h-56v134h-175v46h175v112h-175v46h163l-211 338h62l191 -307l201 307h57z" />
    <glyph glyph-name="dollar.pnum" horiz-adv-x="563" 
d="M268 -110v118c-69 0 -139 18 -186 47v55c49 -29 114 -51 186 -51c86 0 164 30 164 126c0 181 -349 87 -349 310c0 108 88 163 185 172v110h43v-109c68 -2 116 -18 157 -40v-53c-44 22 -97 41 -175 41c-75 0 -154 -29 -154 -119c0 -172 348 -85 348 -309
c0 -113 -81 -165 -176 -177v-121h-43z" />
    <glyph glyph-name="cent.pnum" horiz-adv-x="520" 
d="M254 -110v169c-123 19 -202 118 -202 279c0 152 79 257 202 276v163h44v-159c55 0 111 -16 140 -34v-57c-44 24 -93 37 -140 37c-101 0 -191 -63 -191 -226c0 -169 91 -229 191 -229c50 0 102 15 147 39v-56c-29 -18 -92 -36 -147 -36v-166h-44z" />
    <glyph glyph-name="zero.tabonum" horiz-adv-x="525" 
d="M481 237c0 -149 -86 -249 -219 -249s-219 100 -219 249s86 250 219 250s219 -101 219 -250zM429 237c0 127 -69 200 -167 200s-167 -73 -167 -200s69 -199 167 -199s167 72 167 199z" />
    <glyph glyph-name="one.tabonum" horiz-adv-x="525" 
d="M95 403l201 72h47v-475h-51v423l-197 -69v49z" />
    <glyph glyph-name="two.tabonum" horiz-adv-x="525" 
d="M87 397v55c33 19 92 35 154 35c103 0 188 -50 188 -152c0 -119 -135 -194 -271 -286h284v-49h-370v41c180 130 302 196 302 291c0 72 -60 105 -133 105c-65 0 -119 -20 -154 -40z" />
    <glyph glyph-name="three.tabonum" horiz-adv-x="525" 
d="M162 161v50h71c92 0 156 39 156 118c0 76 -67 108 -147 108c-65 0 -119 -20 -154 -40v55c33 19 92 35 155 35c108 0 198 -49 198 -156c0 -85 -53 -127 -109 -144c57 -17 120 -60 120 -153c0 -128 -102 -181 -211 -181c-57 0 -116 14 -164 40v57c49 -29 103 -47 166 -47
c81 0 157 35 157 129c0 98 -84 129 -167 129h-71z" />
    <glyph glyph-name="four.tabonum" horiz-adv-x="525" 
d="M353 482h54v-387h86v-46h-86v-188h-52v188h-293v36zM127 95h229v314z" />
    <glyph glyph-name="five.tabonum" horiz-adv-x="525" 
d="M429 475v-49h-259l-18 -191c15 1 30 2 44 2c148 0 250 -66 250 -192c0 -130 -111 -192 -230 -192c-47 0 -96 10 -139 29v55c44 -23 92 -34 138 -34c94 0 176 48 176 141c0 95 -72 145 -204 145c-27 0 -62 -2 -86 -6l-4 5l29 287h303z" />
    <glyph glyph-name="six.tabonumonum" horiz-adv-x="525" 
d="M108 266c3 -101 29 -228 164 -228c89 0 150 63 150 159c0 109 -67 144 -144 144c-69 0 -138 -36 -170 -75zM109 327c32 28 93 64 169 64c108 0 197 -59 197 -191c0 -120 -82 -212 -205 -212c-174 0 -215 168 -215 286c0 233 106 348 266 348c57 0 114 -18 143 -35v-55
c-33 20 -82 40 -143 40c-130 0 -200 -86 -212 -245z" />
    <glyph glyph-name="seven.tabonum" horiz-adv-x="525" 
d="M86 475h376v-43c-148 -159 -257 -349 -301 -571h-54c43 218 157 427 291 568h-312v46z" />
    <glyph glyph-name="eight.tabonum" horiz-adv-x="525" 
d="M262 295c-82 0 -162 -32 -162 -130c0 -85 80 -127 162 -127s162 42 162 127c0 98 -80 130 -162 130zM262 -12c-117 0 -212 65 -212 175c0 90 52 135 115 158c-54 23 -100 62 -100 144c0 99 91 157 197 157s197 -58 197 -157c0 -82 -46 -121 -100 -144
c63 -23 115 -68 115 -158c0 -110 -95 -175 -212 -175zM262 572c-78 0 -146 -38 -146 -112c0 -80 70 -119 146 -119s146 39 146 119c0 74 -68 112 -146 112z" />
    <glyph glyph-name="nine.tabonum" horiz-adv-x="525" 
d="M417 209c-3 101 -29 228 -164 228c-89 0 -150 -63 -150 -159c0 -109 67 -144 144 -144c69 0 138 36 170 75zM416 148c-32 -28 -93 -64 -169 -64c-108 0 -197 59 -197 191c0 120 82 212 205 212c174 0 215 -168 215 -286c0 -233 -106 -348 -266 -348
c-57 0 -114 18 -143 35v55c33 -20 82 -40 143 -40c130 0 200 86 212 245z" />
    <glyph glyph-name="Euro.tabonum" horiz-adv-x="525" 
d="M469 462v-55c-37 19 -80 30 -123 30c-83 0 -151 -34 -180 -110h255l-9 -43h-257c-2 -15 -3 -30 -3 -46c0 -19 2 -36 4 -51h236l-9 -43h-215c30 -74 96 -106 176 -106c56 0 99 20 132 42v-57c-37 -22 -81 -35 -139 -35c-110 0 -191 60 -223 156h-87l9 43h68
c-3 16 -4 33 -4 51c0 16 1 31 3 46h-76l9 43h76c31 99 115 160 232 160c46 0 88 -8 125 -25z" />
    <glyph glyph-name="sterling.tabonum" horiz-adv-x="525" 
d="M411 224h-203c8 -24 15 -48 15 -79c0 -45 -23 -75 -60 -98h294v-47h-386v38c40 22 100 54 100 105c0 31 -10 54 -20 81h-80v45h66c-5 19 -8 42 -8 70c0 96 86 148 186 148c52 0 104 -12 143 -33v-56c-38 24 -89 39 -144 39c-78 0 -132 -36 -132 -95c0 -29 4 -52 10 -73
h219v-45z" />
    <glyph glyph-name="florin.tabonum" horiz-adv-x="525" 
d="M198 0h-52v214h-87v45h87v61c0 117 97 167 196 167c47 0 95 -11 133 -32v-56c-36 23 -87 38 -135 38c-74 0 -142 -34 -142 -115v-63h230v-45h-230v-214z" />
    <glyph glyph-name="yen.tabonum" horiz-adv-x="525" 
d="M491 475l-180 -218h142v-43h-158v-97h158v-43h-158v-74h-51v74h-159v43h159v97h-159v43h140l-176 218h62l159 -196l166 196h55z" />
    <glyph glyph-name="dollar.tabonum" horiz-adv-x="525" 
d="M254 -122v110c-59 2 -111 17 -155 44v55c50 -31 106 -49 169 -49c79 0 128 26 128 86c0 137 -298 44 -298 225c0 82 66 128 156 136v100h45v-98c50 -3 110 -17 139 -34v-56c-37 24 -99 40 -155 40c-68 0 -133 -24 -133 -85c0 -128 299 -40 299 -225
c0 -85 -64 -129 -150 -137v-112h-45z" />
    <glyph glyph-name="cent.tabonum" horiz-adv-x="525" 
d="M453 462v-55c-36 19 -80 30 -123 30c-110 0 -194 -59 -194 -199s84 -200 192 -200c56 0 99 20 132 42v-57c-36 -22 -81 -35 -138 -35h-6v-110h-45v115c-114 20 -188 113 -188 245c0 129 73 221 188 243v104h45v-98h12c46 0 89 -8 125 -25z" />
    </font>
</defs>
</svg>
