<svg xmlns="http://www.w3.org/2000/svg" viewBox="0 0 123.17 99.31"><defs><style>.cls-1{fill:#025e82;}</style></defs><g id="Layer_2" data-name="Layer 2"><g id="Layer_1-2" data-name="Layer 1"><g id="x0peeD"><path class="cls-1" d="M123.17,16.57V96.48c-1.36,2.49-3.28,3.28-6.14,2.59-6.09-1.47-12.19-3-18.38-3.92-11.79-1.66-23.43-1-34.68,3.51a7.6,7.6,0,0,1-5.17-.13,60.77,60.77,0,0,0-21.61-4.14,102.93,102.93,0,0,0-31,4.55C2.32,100.09,0,98.52,0,94.57Q0,56.4,0,18.22c0-3.3,1.56-4.8,4.9-4.86,2.53,0,5.06,0,7.9,0,0-2.91,0-5.53,0-8.14C12.89,1.88,14.07.27,17.34.27a126.44,126.44,0,0,1,18,.81,40.56,40.56,0,0,1,26,14.18c1-.85,1.94-1.59,2.83-2.38s1.83-1.78,2.82-2.58C78.55,1,92.12-.82,106.4.3c2.54.2,3.89,1.83,3.93,4.4,0,2.8,0,5.6,0,8.65,2.61,0,4.88.09,7.13,0C120.12,13.18,122.11,14,123.17,16.57ZM101.94,72.25a7.07,7.07,0,0,0,.27-1.14q0-30.51.05-61c0-1.65-.74-2.09-2.15-2-3.45.27-6.94.3-10.33.88C80.7,10.55,72.71,14.24,67.2,22a8.13,8.13,0,0,0-1.44,4.47c-.1,18.06-.07,36.12-.07,54.19v2.79C76.49,74.48,88.73,71.91,101.94,72.25ZM21.13,8.47V72.25c13.32-.37,25.61,2.27,36.07,11a4.44,4.44,0,0,0,.26-.83q0-28.45,0-56.92a5.49,5.49,0,0,0-1-2.73C49.17,11.34,33.26,7.15,21.13,8.47Z"/></g></g></g></svg>